<?xml version="1.0" encoding="UTF-8" standalone="no"?>
<!DOCTYPE svg PUBLIC "-//W3C//DTD SVG 1.1//EN"
 "http://www.w3.org/Graphics/SVG/1.1/DTD/svg11.dtd">
<!-- Generated by graphviz version 2.43.0 (0)
 -->
<!-- Title: concepts.hpp Pages: 1 -->
<!--zoomable 467 -->

<svg id="main" version="1.1" xmlns="http://www.w3.org/2000/svg" xmlns:xlink="http://www.w3.org/1999/xlink" xml:space="preserve" onload="init(evt)">
<style type="text/css"><![CDATA[
.node, .edge {opacity: 0.7;}
.node.selected, .edge.selected {opacity: 1;}
.edge:hover path { stroke: red; }
.edge:hover polygon { stroke: red; fill: red; }
]]></style>

<defs>
  <circle id="rim" cx="0" cy="0" r="7"/>
  <circle id="rim2" cx="0" cy="0" r="3.5"/>
  <g id="zoomPlus">
    <use xlink:href="#rim" fill="#404040"><set attributeName="fill" to="#808080" begin="zoomplus.mouseover" end="zoomplus.mouseout"/></use>
    <path d="M-4,0h8M0,-4v8" fill="none" stroke="white" stroke-width="1.5" pointer-events="none"/>
  </g>
  <g id="zoomMin">
    <use xlink:href="#rim" fill="#404040"><set attributeName="fill" to="#808080" begin="zoomminus.mouseover" end="zoomminus.mouseout"/></use>
    <path d="M-4,0h8" fill="none" stroke="white" stroke-width="1.5" pointer-events="none"/>
  </g>
  <g id="arrowUp" transform="translate(30 24)">
    <use xlink:href="#rim"/>
    <path pointer-events="none" fill="none" stroke="white" stroke-width="1.5" d="M0,-3.0v7 M-2.5,-0.5L0,-3.0L2.5,-0.5"/>
  </g>
  <g id="arrowRight" transform="rotate(90) translate(36 -43)">
    <use xlink:href="#rim"/>
    <path pointer-events="none" fill="none" stroke="white" stroke-width="1.5" d="M0,-3.0v7 M-2.5,-0.5L0,-3.0L2.5,-0.5"/>
  </g>
  <g id="arrowDown" transform="rotate(180) translate(-30 -48)">
    <use xlink:href="#rim"/>
    <path pointer-events="none" fill="none" stroke="white" stroke-width="1.5" d="M0,-3.0v7 M-2.5,-0.5L0,-3.0L2.5,-0.5"/>
  </g>
  <g id="arrowLeft" transform="rotate(270) translate(-36 17)">
    <use xlink:href="#rim"/>
    <path pointer-events="none" fill="none" stroke="white" stroke-width="1.5" d="M0,-3.0v7 M-2.5,-0.5L0,-3.0L2.5,-0.5"/>
  </g>
  <g id="resetDef">
    <use xlink:href="#rim2" fill="#404040"><set attributeName="fill" to="#808080" begin="reset.mouseover" end="reset.mouseout"/></use>
  </g>
</defs>
<script type="application/ecmascript">
var viewWidth = 1270;
var viewHeight = 467;
var sectionId = 'dynsection-1';
</script>
<script type="application/ecmascript" xlink:href="svg.min.js"/>
<svg id="graph" class="graph">
<g id="viewport">
<title>concepts.hpp</title>
<!-- Node1 -->
<g id="Node000001" class="node">
<title>Node1</title>
<g id="a_Node000001"><a xlink:title="Core concepts that both modes (universal + specific) satisfy.">
<polygon fill="#999999" stroke="#666666" points="690,-459 609,-459 609,-440 690,-440 690,-459"/>
<text text-anchor="middle" x="649.5" y="-447" font-family="Helvetica,sans-Serif" font-size="10.00">concepts.hpp</text>
</a>
</g>
</g>
<!-- Node2 -->
<g id="Node000002" class="node">
<title>Node2</title>
<g id="a_Node000002"><a xlink:href="check__resolver_8hpp.html" target="_top" xlink:title="Check resolver (universal mode).">
<polygon fill="white" stroke="#666666" points="483.5,-184 373.5,-184 373.5,-165 483.5,-165 483.5,-184"/>
<text text-anchor="middle" x="428.5" y="-172" font-family="Helvetica,sans-Serif" font-size="10.00">check_resolver.hpp</text>
</a>
</g>
</g>
<!-- Node1&#45;&gt;Node2 -->
<g id="edge1_Node000001_Node000002" class="edge">
<title>Node1&#45;&gt;Node2</title>
<g id="a_edge1_Node000001_Node000002"><a xlink:title=" ">
<path fill="none" stroke="#63b8ff" d="M598.88,-447.98C473.67,-445.33 159.5,-429.78 159.5,-340.5 159.5,-340.5 159.5,-340.5 159.5,-283.5 159.5,-254.04 156.51,-239.6 178.5,-220 206.64,-194.92 308.73,-183.49 373.42,-178.66"/>
<polygon fill="#63b8ff" stroke="#63b8ff" points="598.92,-451.48 608.98,-448.17 599.05,-444.48 598.92,-451.48"/>
</a>
</g>
</g>
<!-- Node15 -->
<g id="Node000015" class="node">
<title>Node15</title>
<g id="a_Node000015"><a xlink:href="checks_8hpp.html" target="_top" xlink:title="Generic, data&#45;driven check resolution.">
<polygon fill="white" stroke="#666666" points="652,-349 581,-349 581,-330 652,-330 652,-349"/>
<text text-anchor="middle" x="616.5" y="-337" font-family="Helvetica,sans-Serif" font-size="10.00">checks.hpp</text>
</a>
</g>
</g>
<!-- Node1&#45;&gt;Node15 -->
<g id="edge17_Node000001_Node000015" class="edge">
<title>Node1&#45;&gt;Node15</title>
<g id="a_edge17_Node000001_Node000015"><a xlink:title=" ">
<path fill="none" stroke="#63b8ff" d="M643.79,-429.8C636.58,-406.2 624.47,-366.58 619.15,-349.16"/>
<polygon fill="#63b8ff" stroke="#63b8ff" points="640.53,-431.12 646.8,-439.66 647.22,-429.08 640.53,-431.12"/>
</a>
</g>
</g>
<!-- Node24 -->
<g id="Node000024" class="node">
<title>Node24</title>
<g id="a_Node000024"><a xlink:href="dice__engine_8hpp.html" target="_top" xlink:title="Dice expression parsing and rolling.">
<polygon fill="white" stroke="#666666" points="1057.5,-404 961.5,-404 961.5,-385 1057.5,-385 1057.5,-404"/>
<text text-anchor="middle" x="1009.5" y="-392" font-family="Helvetica,sans-Serif" font-size="10.00">dice_engine.hpp</text>
</a>
</g>
</g>
<!-- Node1&#45;&gt;Node24 -->
<g id="edge36_Node000001_Node000024" class="edge">
<title>Node1&#45;&gt;Node24</title>
<g id="a_edge36_Node000001_Node000024"><a xlink:title=" ">
<path fill="none" stroke="#63b8ff" d="M700.35,-441.01C769.77,-430.79 893.35,-412.6 961.35,-402.59"/>
<polygon fill="#63b8ff" stroke="#63b8ff" points="699.48,-437.6 690.1,-442.52 700.5,-444.53 699.48,-437.6"/>
</a>
</g>
</g>
<!-- Node26 -->
<g id="Node000026" class="node">
<title>Node26</title>
<g id="a_Node000026"><a xlink:href="variance_8hpp.html" target="_top" xlink:title="Variance / range selection for stat values.">
<polygon fill="white" stroke="#666666" points="750.5,-349 670.5,-349 670.5,-330 750.5,-330 750.5,-349"/>
<text text-anchor="middle" x="710.5" y="-337" font-family="Helvetica,sans-Serif" font-size="10.00">variance.hpp</text>
</a>
</g>
</g>
<!-- Node1&#45;&gt;Node26 -->
<g id="edge54_Node000001_Node000026" class="edge">
<title>Node1&#45;&gt;Node26</title>
<g id="a_edge54_Node000001_Node000026"><a xlink:title=" ">
<path fill="none" stroke="#63b8ff" d="M659.52,-430.76C672.78,-407.28 695.64,-366.81 705.61,-349.16"/>
<polygon fill="#63b8ff" stroke="#63b8ff" points="656.36,-429.23 654.49,-439.66 662.46,-432.68 656.36,-429.23"/>
</a>
</g>
</g>
<!-- Node3 -->
<g id="Node000003" class="node">
<title>Node3</title>
<g id="a_Node000003"><a xlink:href="engine_8hpp.html" target="_top" xlink:title="RulesetEngine facade (universal mode).">
<polygon fill="white" stroke="#666666" points="573,-129 502,-129 502,-110 573,-110 573,-129"/>
<text text-anchor="middle" x="537.5" y="-117" font-family="Helvetica,sans-Serif" font-size="10.00">engine.hpp</text>
</a>
</g>
</g>
<!-- Node2&#45;&gt;Node3 -->
<g id="edge2_Node000002_Node000003" class="edge">
<title>Node2&#45;&gt;Node3</title>
<g id="a_edge2_Node000002_Node000003"><a xlink:title=" ">
<path fill="none" stroke="#63b8ff" d="M455.23,-160.5C475.29,-150.75 502.18,-137.68 519.67,-129.17"/>
<polygon fill="#63b8ff" stroke="#63b8ff" points="453.48,-157.46 446.01,-164.98 456.54,-163.76 453.48,-157.46"/>
</a>
</g>
</g>
<!-- Node4 -->
<g id="Node000004" class="node">
<title>Node4</title>
<g id="a_Node000004"><a xlink:href="combat_8hpp.html" target="_top" xlink:title="Combat simulation helpers (universal mode).">
<polygon fill="white" stroke="#666666" points="829.5,-74 755.5,-74 755.5,-55 829.5,-55 829.5,-74"/>
<text text-anchor="middle" x="792.5" y="-62" font-family="Helvetica,sans-Serif" font-size="10.00">combat.hpp</text>
</a>
</g>
</g>
<!-- Node3&#45;&gt;Node4 -->
<g id="edge3_Node000003_Node000004" class="edge">
<title>Node3&#45;&gt;Node4</title>
<g id="a_edge3_Node000003_Node000004"><a xlink:title=" ">
<path fill="none" stroke="#63b8ff" d="M583.28,-108.99C632.49,-98.76 709.78,-82.69 755.36,-73.22"/>
<polygon fill="#63b8ff" stroke="#63b8ff" points="582.3,-105.61 573.23,-111.07 583.73,-112.47 582.3,-105.61"/>
</a>
</g>
</g>
<!-- Node5 -->
<g id="Node000005" class="node">
<title>Node5</title>
<g id="a_Node000005"><a xlink:href="fight_2main_8cpp.html" target="_top" xlink:title="Fight&#45;to&#45;the&#45;end demo (universal mode).">
<polygon fill="white" stroke="#666666" points="873.5,-19 811.5,-19 811.5,0 873.5,0 873.5,-19"/>
<text text-anchor="middle" x="842.5" y="-7" font-family="Helvetica,sans-Serif" font-size="10.00">main.cpp</text>
</a>
</g>
</g>
<!-- Node3&#45;&gt;Node5 -->
<g id="edge9_Node000003_Node000005" class="edge">
<title>Node3&#45;&gt;Node5</title>
<g id="a_edge9_Node000003_Node000005"><a xlink:title=" ">
<path fill="none" stroke="#63b8ff" d="M554.75,-102.59C571.55,-87.98 598.46,-66.84 625.5,-55 699.03,-22.79 723.9,-35.34 802.5,-19 805.42,-18.39 808.46,-17.76 811.5,-17.12"/>
<polygon fill="#63b8ff" stroke="#63b8ff" points="552.07,-100.29 546.93,-109.56 556.73,-105.52 552.07,-100.29"/>
</a>
</g>
</g>
<!-- Node6 -->
<g id="Node000006" class="node">
<title>Node6</title>
<g id="a_Node000006"><a xlink:href="test__bookkeeping_8cpp.html" target="_top" xlink:title="Tests for the universal bookkeeping layer.">
<polygon fill="white" stroke="#666666" points="629,-19 506,-19 506,0 629,0 629,-19"/>
<text text-anchor="middle" x="567.5" y="-7" font-family="Helvetica,sans-Serif" font-size="10.00">test_bookkeeping.cpp</text>
</a>
</g>
</g>
<!-- Node3&#45;&gt;Node6 -->
<g id="edge11_Node000003_Node000006" class="edge">
<title>Node3&#45;&gt;Node6</title>
<g id="a_edge11_Node000003_Node000006"><a xlink:title=" ">
<path fill="none" stroke="#63b8ff" d="M542.69,-99.8C549.25,-76.2 560.26,-36.58 565.09,-19.16"/>
<polygon fill="#63b8ff" stroke="#63b8ff" points="539.26,-99.09 539.96,-109.66 546,-100.96 539.26,-99.09"/>
</a>
</g>
</g>
<!-- Node8 -->
<g id="Node000008" class="node">
<title>Node8</title>
<g id="a_Node000008"><a xlink:href="game__session_8hpp.html" target="_top" xlink:title="The application&#45;facing facade (&quot;OS kernel&quot;).">
<polygon fill="white" stroke="#666666" points="107,-74 0,-74 0,-55 107,-55 107,-74"/>
<text text-anchor="middle" x="53.5" y="-62" font-family="Helvetica,sans-Serif" font-size="10.00">game_session.hpp</text>
</a>
</g>
</g>
<!-- Node3&#45;&gt;Node8 -->
<g id="edge7_Node000003_Node000008" class="edge">
<title>Node3&#45;&gt;Node8</title>
<g id="a_edge7_Node000003_Node000008"><a xlink:title=" ">
<path fill="none" stroke="#63b8ff" d="M491.62,-114.09C414.21,-106.54 252.75,-90.39 116.5,-74 113.43,-73.63 110.28,-73.24 107.1,-72.84"/>
<polygon fill="#63b8ff" stroke="#63b8ff" points="491.69,-117.61 501.98,-115.09 492.36,-110.64 491.69,-117.61"/>
</a>
</g>
</g>
<!-- Node9 -->
<g id="Node000009" class="node">
<title>Node9</title>
<g id="a_Node000009"><a xlink:href="universal__mode_2main_8cpp.html" target="_top" xlink:title="Universal mode demo: load any ruleset JSON at runtime and resolve rules generically.">
<polygon fill="white" stroke="#666666" points="187.5,-74 125.5,-74 125.5,-55 187.5,-55 187.5,-74"/>
<text text-anchor="middle" x="156.5" y="-62" font-family="Helvetica,sans-Serif" font-size="10.00">main.cpp</text>
</a>
</g>
</g>
<!-- Node3&#45;&gt;Node9 -->
<g id="edge10_Node000003_Node000009" class="edge">
<title>Node3&#45;&gt;Node9</title>
<g id="a_edge10_Node000003_Node000009"><a xlink:title=" ">
<path fill="none" stroke="#63b8ff" d="M491.64,-113.59C426.18,-106.34 302.25,-91.69 197.5,-74 194.35,-73.47 191.07,-72.87 187.79,-72.24"/>
<polygon fill="#63b8ff" stroke="#63b8ff" points="491.31,-117.08 501.64,-114.69 492.08,-110.12 491.31,-117.08"/>
</a>
</g>
</g>
<!-- Node10 -->
<g id="Node000010" class="node">
<title>Node10</title>
<g id="a_Node000010"><a xlink:href="test__codegen__output_8cpp.html" target="_top" xlink:title="Tests for the generated &quot;specific mode&quot; headers in generated/.">
<polygon fill="white" stroke="#666666" points="987,-74 848,-74 848,-55 987,-55 987,-74"/>
<text text-anchor="middle" x="917.5" y="-62" font-family="Helvetica,sans-Serif" font-size="10.00">test_codegen_output.cpp</text>
</a>
</g>
</g>
<!-- Node3&#45;&gt;Node10 -->
<g id="edge12_Node000003_Node000010" class="edge">
<title>Node3&#45;&gt;Node10</title>
<g id="a_edge12_Node000003_Node000010"><a xlink:title=" ">
<path fill="none" stroke="#63b8ff" d="M583.27,-112.12C651.53,-102.6 780.13,-84.66 856.37,-74.03"/>
<polygon fill="#63b8ff" stroke="#63b8ff" points="582.67,-108.67 573.25,-113.51 583.64,-115.6 582.67,-108.67"/>
</a>
</g>
</g>
<!-- Node11 -->
<g id="Node000011" class="node">
<title>Node11</title>
<g id="a_Node000011"><a xlink:href="test__data__api_8cpp.html" target="_top" xlink:title="Tests for the engine&#39;s full&#45;coverage data API.">
<polygon fill="white" stroke="#666666" points="309,-74 206,-74 206,-55 309,-55 309,-74"/>
<text text-anchor="middle" x="257.5" y="-62" font-family="Helvetica,sans-Serif" font-size="10.00">test_data_api.cpp</text>
</a>
</g>
</g>
<!-- Node3&#45;&gt;Node11 -->
<g id="edge13_Node000003_Node000011" class="edge">
<title>Node3&#45;&gt;Node11</title>
<g id="a_edge13_Node000003_Node000011"><a xlink:title=" ">
<path fill="none" stroke="#63b8ff" d="M491.77,-109.84C439.58,-99.97 354.74,-83.91 302.75,-74.07"/>
<polygon fill="#63b8ff" stroke="#63b8ff" points="491.28,-113.31 501.75,-111.73 492.58,-106.43 491.28,-113.31"/>
</a>
</g>
</g>
<!-- Node12 -->
<g id="Node000012" class="node">
<title>Node12</title>
<g id="a_Node000012"><a xlink:href="test__engine_8cpp.html" target="_top" xlink:title="Integration tests for the universal engine facade (rpg_os::RulesetEngine).">
<polygon fill="white" stroke="#666666" points="421.5,-74 327.5,-74 327.5,-55 421.5,-55 421.5,-74"/>
<text text-anchor="middle" x="374.5" y="-62" font-family="Helvetica,sans-Serif" font-size="10.00">test_engine.cpp</text>
</a>
</g>
</g>
<!-- Node3&#45;&gt;Node12 -->
<g id="edge14_Node000003_Node000012" class="edge">
<title>Node3&#45;&gt;Node12</title>
<g id="a_edge14_Node000003_Node000012"><a xlink:title=" ">
<path fill="none" stroke="#63b8ff" d="M501.51,-106.8C471.09,-96.91 428.22,-82.97 400.89,-74.08"/>
<polygon fill="#63b8ff" stroke="#63b8ff" points="500.72,-110.22 511.31,-109.98 502.88,-103.56 500.72,-110.22"/>
</a>
</g>
</g>
<!-- Node13 -->
<g id="Node000013" class="node">
<title>Node13</title>
<g id="a_Node000013"><a xlink:href="test__rulesets_8cpp.html" target="_top" xlink:title="Tests that load the real shipped rulesets (the rulesets/ JSON files).">
<polygon fill="white" stroke="#666666" points="539.5,-74 439.5,-74 439.5,-55 539.5,-55 539.5,-74"/>
<text text-anchor="middle" x="489.5" y="-62" font-family="Helvetica,sans-Serif" font-size="10.00">test_rulesets.cpp</text>
</a>
</g>
</g>
<!-- Node3&#45;&gt;Node13 -->
<g id="edge15_Node000003_Node000013" class="edge">
<title>Node3&#45;&gt;Node13</title>
<g id="a_edge15_Node000003_Node000013"><a xlink:title=" ">
<path fill="none" stroke="#63b8ff" d="M522.77,-102.24C514.36,-92.95 504.15,-81.68 497.28,-74.09"/>
<polygon fill="#63b8ff" stroke="#63b8ff" points="520.27,-104.69 529.57,-109.75 525.46,-99.99 520.27,-104.69"/>
</a>
</g>
</g>
<!-- Node14 -->
<g id="Node000014" class="node">
<title>Node14</title>
<g id="a_Node000014"><a xlink:href="test__variance_8cpp.html" target="_top" xlink:title="Tests for variance / range selection (rpg_os::Variance, rpg_os::readVariantValue).">
<polygon fill="white" stroke="#666666" points="737,-74 634,-74 634,-55 737,-55 737,-74"/>
<text text-anchor="middle" x="685.5" y="-62" font-family="Helvetica,sans-Serif" font-size="10.00">test_variance.cpp</text>
</a>
</g>
</g>
<!-- Node3&#45;&gt;Node14 -->
<g id="edge16_Node000003_Node000014" class="edge">
<title>Node3&#45;&gt;Node14</title>
<g id="a_edge16_Node000003_Node000014"><a xlink:title=" ">
<path fill="none" stroke="#63b8ff" d="M570.87,-106.55C598.35,-96.71 636.67,-82.98 661.29,-74.17"/>
<polygon fill="#63b8ff" stroke="#63b8ff" points="569.51,-103.32 561.28,-109.98 571.87,-109.91 569.51,-103.32"/>
</a>
</g>
</g>
<!-- Node4&#45;&gt;Node5 -->
<g id="edge4_Node000004_Node000005" class="edge">
<title>Node4&#45;&gt;Node5</title>
<g id="a_edge4_Node000004_Node000005"><a xlink:title=" ">
<path fill="none" stroke="#63b8ff" d="M807.84,-47.24C816.6,-37.95 827.24,-26.68 834.4,-19.09"/>
<polygon fill="#63b8ff" stroke="#63b8ff" points="805.07,-45.07 800.76,-54.75 810.16,-49.88 805.07,-45.07"/>
</a>
</g>
</g>
<!-- Node4&#45;&gt;Node6 -->
<g id="edge5_Node000004_Node000006" class="edge">
<title>Node4&#45;&gt;Node6</title>
<g id="a_edge5_Node000004_Node000006"><a xlink:title=" ">
<path fill="none" stroke="#63b8ff" d="M746.61,-52.69C704.45,-42.76 642.8,-28.24 603.93,-19.08"/>
<polygon fill="#63b8ff" stroke="#63b8ff" points="745.81,-56.1 756.35,-54.98 747.42,-49.28 745.81,-56.1"/>
</a>
</g>
</g>
<!-- Node7 -->
<g id="Node000007" class="node">
<title>Node7</title>
<g id="a_Node000007"><a xlink:href="test__combat_8cpp.html" target="_top" xlink:title="Tests for the combat simulation helpers (include/rpg_os/universal/combat.hpp).">
<polygon fill="white" stroke="#666666" points="793.5,-19 695.5,-19 695.5,0 793.5,0 793.5,-19"/>
<text text-anchor="middle" x="744.5" y="-7" font-family="Helvetica,sans-Serif" font-size="10.00">test_combat.cpp</text>
</a>
</g>
</g>
<!-- Node4&#45;&gt;Node7 -->
<g id="edge6_Node000004_Node000007" class="edge">
<title>Node4&#45;&gt;Node7</title>
<g id="a_edge6_Node000004_Node000007"><a xlink:title=" ">
<path fill="none" stroke="#63b8ff" d="M777.77,-47.24C769.36,-37.95 759.15,-26.68 752.28,-19.09"/>
<polygon fill="#63b8ff" stroke="#63b8ff" points="775.27,-49.69 784.57,-54.75 780.46,-44.99 775.27,-49.69"/>
</a>
</g>
</g>
<!-- Node8&#45;&gt;Node6 -->
<g id="edge8_Node000008_Node000006" class="edge">
<title>Node8&#45;&gt;Node6</title>
<g id="a_edge8_Node000008_Node000006"><a xlink:title=" ">
<path fill="none" stroke="#63b8ff" d="M117.12,-54.97C262.71,-38.1 420.8,-23.46 505.78,-15.89"/>
<polygon fill="#63b8ff" stroke="#63b8ff" points="116.63,-51.5 107.1,-56.14 117.44,-58.46 116.63,-51.5"/>
</a>
</g>
</g>
<!-- Node15&#45;&gt;Node2 -->
<g id="edge20_Node000015_Node000002" class="edge">
<title>Node15&#45;&gt;Node2</title>
<g id="a_edge20_Node000015_Node000002"><a xlink:title=" ">
<path fill="none" stroke="#63b8ff" d="M575.87,-326.73C535.02,-312.7 473.51,-285.16 440.5,-239 428.62,-222.39 427.57,-197.3 427.95,-184.19"/>
<polygon fill="#63b8ff" stroke="#63b8ff" points="574.93,-330.1 585.52,-329.93 577.13,-323.46 574.93,-330.1"/>
</a>
</g>
</g>
<!-- Node15&#45;&gt;Node3 -->
<g id="edge24_Node000015_Node000003" class="edge">
<title>Node15&#45;&gt;Node3</title>
<g id="a_edge24_Node000015_Node000003"><a xlink:title=" ">
<path fill="none" stroke="#63b8ff" d="M609.95,-320.42C593.77,-275.79 552.42,-161.67 540.66,-129.22"/>
<polygon fill="#63b8ff" stroke="#63b8ff" points="606.71,-321.74 613.4,-329.95 613.29,-319.36 606.71,-321.74"/>
</a>
</g>
</g>
<!-- Node16 -->
<g id="Node000016" class="node">
<title>Node16</title>
<g id="a_Node000016"><a xlink:href="brp__ugc__static_8hpp.html" target="_top" xlink:title=" ">
<polygon fill="white" stroke="#666666" points="839.5,-294 731.5,-294 731.5,-275 839.5,-275 839.5,-294"/>
<text text-anchor="middle" x="785.5" y="-282" font-family="Helvetica,sans-Serif" font-size="10.00">brp_ugc_static.hpp</text>
</a>
</g>
</g>
<!-- Node15&#45;&gt;Node16 -->
<g id="edge18_Node000015_Node000016" class="edge">
<title>Node15&#45;&gt;Node16</title>
<g id="a_edge18_Node000015_Node000016"><a xlink:title=" ">
<path fill="none" stroke="#63b8ff" d="M653.4,-326.93C684.97,-317.03 729.68,-303.01 758.13,-294.08"/>
<polygon fill="#63b8ff" stroke="#63b8ff" points="652.15,-323.65 643.65,-329.98 654.24,-330.33 652.15,-323.65"/>
</a>
</g>
</g>
<!-- Node17 -->
<g id="Node000017" class="node">
<title>Node17</title>
<g id="a_Node000017"><a xlink:href="dnd5e__srd__static_8hpp.html" target="_top" xlink:title=" ">
<polygon fill="white" stroke="#666666" points="977.5,-294 857.5,-294 857.5,-275 977.5,-275 977.5,-294"/>
<text text-anchor="middle" x="917.5" y="-282" font-family="Helvetica,sans-Serif" font-size="10.00">dnd5e_srd_static.hpp</text>
</a>
</g>
</g>
<!-- Node15&#45;&gt;Node17 -->
<g id="edge21_Node000015_Node000017" class="edge">
<title>Node15&#45;&gt;Node17</title>
<g id="a_edge21_Node000015_Node000017"><a xlink:title=" ">
<path fill="none" stroke="#63b8ff" d="M662.25,-329.89C739.46,-315.92 817.4,-302.51 866.94,-294.06"/>
<polygon fill="#63b8ff" stroke="#63b8ff" points="661.57,-326.45 652.35,-331.68 662.82,-333.34 661.57,-326.45"/>
</a>
</g>
</g>
<!-- Node19 -->
<g id="Node000019" class="node">
<title>Node19</title>
<g id="a_Node000019"><a xlink:href="ruleset__loader_8hpp.html" target="_top" xlink:title="Ruleset loading and validation (universal / dynamic mode).">
<polygon fill="white" stroke="#666666" points="408,-294 301,-294 301,-275 408,-275 408,-294"/>
<text text-anchor="middle" x="354.5" y="-282" font-family="Helvetica,sans-Serif" font-size="10.00">ruleset_loader.hpp</text>
</a>
</g>
</g>
<!-- Node15&#45;&gt;Node19 -->
<g id="edge25_Node000015_Node000019" class="edge">
<title>Node15&#45;&gt;Node19</title>
<g id="a_edge25_Node000015_Node000019"><a xlink:title=" ">
<path fill="none" stroke="#63b8ff" d="M570.86,-329.27C521.73,-319.33 444.22,-303.65 396.53,-294"/>
<polygon fill="#63b8ff" stroke="#63b8ff" points="570.4,-332.74 580.89,-331.3 571.79,-325.88 570.4,-332.74"/>
</a>
</g>
</g>
<!-- Node22 -->
<g id="Node000022" class="node">
<title>Node22</title>
<g id="a_Node000022"><a xlink:href="tde5e__core__static_8hpp.html" target="_top" xlink:title=" ">
<polygon fill="white" stroke="#666666" points="1119.5,-294 995.5,-294 995.5,-275 1119.5,-275 1119.5,-294"/>
<text text-anchor="middle" x="1057.5" y="-282" font-family="Helvetica,sans-Serif" font-size="10.00">tde5e_core_static.hpp</text>
</a>
</g>
</g>
<!-- Node15&#45;&gt;Node22 -->
<g id="edge32_Node000015_Node000022" class="edge">
<title>Node15&#45;&gt;Node22</title>
<g id="a_edge32_Node000015_Node000022"><a xlink:title=" ">
<path fill="none" stroke="#63b8ff" d="M662.45,-329.97C806.94,-308.58 845.37,-310.26 986.5,-294 989.34,-293.67 992.24,-293.34 995.17,-292.99"/>
<polygon fill="#63b8ff" stroke="#63b8ff" points="661.69,-326.54 652.32,-331.48 662.73,-333.47 661.69,-326.54"/>
</a>
</g>
</g>
<!-- Node23 -->
<g id="Node000023" class="node">
<title>Node23</title>
<g id="a_Node000023"><a xlink:href="test__checks_8cpp.html" target="_top" xlink:title="Tests for the generic, data&#45;driven check resolver (rpg_os::checks).">
<polygon fill="white" stroke="#666666" points="283,-294 188,-294 188,-275 283,-275 283,-294"/>
<text text-anchor="middle" x="235.5" y="-282" font-family="Helvetica,sans-Serif" font-size="10.00">test_checks.cpp</text>
</a>
</g>
</g>
<!-- Node15&#45;&gt;Node23 -->
<g id="edge35_Node000015_Node000023" class="edge">
<title>Node15&#45;&gt;Node23</title>
<g id="a_edge35_Node000015_Node000023"><a xlink:title=" ">
<path fill="none" stroke="#63b8ff" d="M570.54,-332.36C507.72,-323.92 391.53,-308.18 292.5,-294 289.43,-293.56 286.27,-293.1 283.08,-292.64"/>
<polygon fill="#63b8ff" stroke="#63b8ff" points="570.15,-335.84 580.52,-333.7 571.08,-328.9 570.15,-335.84"/>
</a>
</g>
</g>
<!-- Node16&#45;&gt;Node10 -->
<g id="edge19_Node000016_Node000010" class="edge">
<title>Node16&#45;&gt;Node10</title>
<g id="a_edge19_Node000016_Node000010"><a xlink:title=" ">
<path fill="none" stroke="#63b8ff" d="M795.94,-266.26C822.6,-222.24 892.45,-106.87 912.22,-74.22"/>
<polygon fill="#63b8ff" stroke="#63b8ff" points="792.86,-264.59 790.67,-274.95 798.85,-268.21 792.86,-264.59"/>
</a>
</g>
</g>
<!-- Node17&#45;&gt;Node10 -->
<g id="edge23_Node000017_Node000010" class="edge">
<title>Node17&#45;&gt;Node10</title>
<g id="a_edge23_Node000017_Node000010"><a xlink:title=" ">
<path fill="none" stroke="#63b8ff" d="M917.5,-264.85C917.5,-219.82 917.5,-106.53 917.5,-74.22"/>
<polygon fill="#63b8ff" stroke="#63b8ff" points="914,-264.95 917.5,-274.95 921,-264.95 914,-264.95"/>
</a>
</g>
</g>
<!-- Node18 -->
<g id="Node000018" class="node">
<title>Node18</title>
<g id="a_Node000018"><a xlink:href="specific__mode_2main_8cpp.html" target="_top" xlink:title="Specific mode demo: use the code&#45;generated, strongly typed headers.">
<polygon fill="white" stroke="#666666" points="1088.5,-239 1026.5,-239 1026.5,-220 1088.5,-220 1088.5,-239"/>
<text text-anchor="middle" x="1057.5" y="-227" font-family="Helvetica,sans-Serif" font-size="10.00">main.cpp</text>
</a>
</g>
</g>
<!-- Node17&#45;&gt;Node18 -->
<g id="edge22_Node000017_Node000018" class="edge">
<title>Node17&#45;&gt;Node18</title>
<g id="a_edge22_Node000017_Node000018"><a xlink:title=" ">
<path fill="none" stroke="#63b8ff" d="M949.41,-271.42C975.38,-261.59 1011.42,-247.95 1034.6,-239.17"/>
<polygon fill="#63b8ff" stroke="#63b8ff" points="948.11,-268.17 939.99,-274.98 950.58,-274.72 948.11,-268.17"/>
</a>
</g>
</g>
<!-- Node19&#45;&gt;Node2 -->
<g id="edge26_Node000019_Node000002" class="edge">
<title>Node19&#45;&gt;Node2</title>
<g id="a_edge26_Node000019_Node000002"><a xlink:title=" ">
<path fill="none" stroke="#63b8ff" d="M366.23,-266.38C382.25,-243.01 410.36,-201.97 422.57,-184.16"/>
<polygon fill="#63b8ff" stroke="#63b8ff" points="363.32,-264.43 360.56,-274.66 369.1,-268.39 363.32,-264.43"/>
</a>
</g>
</g>
<!-- Node19&#45;&gt;Node3 -->
<g id="edge30_Node000019_Node000003" class="edge">
<title>Node19&#45;&gt;Node3</title>
<g id="a_edge30_Node000019_Node000003"><a xlink:title=" ">
<path fill="none" stroke="#63b8ff" d="M350.09,-264.89C345.2,-239.24 340.82,-193.02 364.5,-165 382.01,-144.27 456.43,-131.09 501.76,-124.82"/>
<polygon fill="#63b8ff" stroke="#63b8ff" points="346.69,-265.75 352.21,-274.8 353.54,-264.29 346.69,-265.75"/>
</a>
</g>
</g>
<!-- Node20 -->
<g id="Node000020" class="node">
<title>Node20</title>
<g id="a_Node000020"><a xlink:href="dynamic__entity_8hpp.html" target="_top" xlink:title="Dynamic entity (universal mode).">
<polygon fill="white" stroke="#666666" points="561.5,-239 449.5,-239 449.5,-220 561.5,-220 561.5,-239"/>
<text text-anchor="middle" x="505.5" y="-227" font-family="Helvetica,sans-Serif" font-size="10.00">dynamic_entity.hpp</text>
</a>
</g>
</g>
<!-- Node19&#45;&gt;Node20 -->
<g id="edge27_Node000019_Node000020" class="edge">
<title>Node19&#45;&gt;Node20</title>
<g id="a_edge27_Node000019_Node000020"><a xlink:title=" ">
<path fill="none" stroke="#63b8ff" d="M388.55,-271.55C416.59,-261.71 455.68,-247.98 480.8,-239.17"/>
<polygon fill="#63b8ff" stroke="#63b8ff" points="387.04,-268.37 378.76,-274.98 389.36,-274.98 387.04,-268.37"/>
</a>
</g>
</g>
<!-- Node21 -->
<g id="Node000021" class="node">
<title>Node21</title>
<g id="a_Node000021"><a xlink:href="test__ruleset__loader_8cpp.html" target="_top" xlink:title="Tests for the ruleset loader and model (rpg_os::RulesetLoader, rpg_os::Ruleset).">
<polygon fill="white" stroke="#666666" points="317.5,-239 187.5,-239 187.5,-220 317.5,-220 317.5,-239"/>
<text text-anchor="middle" x="252.5" y="-227" font-family="Helvetica,sans-Serif" font-size="10.00">test_ruleset_loader.cpp</text>
</a>
</g>
</g>
<!-- Node19&#45;&gt;Node21 -->
<g id="edge31_Node000019_Node000021" class="edge">
<title>Node19&#45;&gt;Node21</title>
<g id="a_edge31_Node000019_Node000021"><a xlink:title=" ">
<path fill="none" stroke="#63b8ff" d="M329.23,-270.37C310.49,-260.63 285.48,-247.64 269.19,-239.17"/>
<polygon fill="#63b8ff" stroke="#63b8ff" points="327.62,-273.48 338.11,-274.98 330.85,-267.27 327.62,-273.48"/>
</a>
</g>
</g>
<!-- Node20&#45;&gt;Node2 -->
<g id="edge28_Node000020_Node000002" class="edge">
<title>Node20&#45;&gt;Node2</title>
<g id="a_edge28_Node000020_Node000002"><a xlink:title=" ">
<path fill="none" stroke="#63b8ff" d="M484.65,-214.15C470.74,-204.57 452.89,-192.29 441.1,-184.17"/>
<polygon fill="#63b8ff" stroke="#63b8ff" points="482.91,-217.2 493.13,-219.98 486.88,-211.43 482.91,-217.2"/>
</a>
</g>
</g>
<!-- Node20&#45;&gt;Node3 -->
<g id="edge29_Node000020_Node000003" class="edge">
<title>Node20&#45;&gt;Node3</title>
<g id="a_edge29_Node000020_Node000003"><a xlink:title=" ">
<path fill="none" stroke="#63b8ff" d="M511.04,-209.8C518.03,-186.2 529.77,-146.58 534.93,-129.16"/>
<polygon fill="#63b8ff" stroke="#63b8ff" points="507.6,-209.08 508.12,-219.66 514.32,-211.07 507.6,-209.08"/>
</a>
</g>
</g>
<!-- Node22&#45;&gt;Node10 -->
<g id="edge34_Node000022_Node000010" class="edge">
<title>Node22&#45;&gt;Node10</title>
<g id="a_edge34_Node000022_Node000010"><a xlink:title=" ">
<path fill="none" stroke="#63b8ff" d="M1041.53,-267.4C1033.83,-259.24 1024.73,-248.96 1017.5,-239 974.43,-179.62 934.42,-100.26 921.69,-74.19"/>
<polygon fill="#63b8ff" stroke="#63b8ff" points="1039.18,-270 1048.64,-274.77 1044.22,-265.14 1039.18,-270"/>
</a>
</g>
</g>
<!-- Node22&#45;&gt;Node18 -->
<g id="edge33_Node000022_Node000018" class="edge">
<title>Node22&#45;&gt;Node18</title>
<g id="a_edge33_Node000022_Node000018"><a xlink:title=" ">
<path fill="none" stroke="#63b8ff" d="M1057.5,-264.66C1057.5,-255.93 1057.5,-245.99 1057.5,-239.09"/>
<polygon fill="#63b8ff" stroke="#63b8ff" points="1054,-264.75 1057.5,-274.75 1061,-264.75 1054,-264.75"/>
</a>
</g>
</g>
<!-- Node24&#45;&gt;Node3 -->
<g id="edge41_Node000024_Node000003" class="edge">
<title>Node24&#45;&gt;Node3</title>
<g id="a_edge41_Node000024_Node000003"><a xlink:title=" ">
<path fill="none" stroke="#63b8ff" d="M1067.75,-390.47C1100.72,-385.78 1140.44,-374.68 1166.5,-349 1187.48,-328.32 1185.5,-314.96 1185.5,-285.5 1185.5,-285.5 1185.5,-285.5 1185.5,-228.5 1185.5,-165.91 709.11,-131.25 573.26,-122.64"/>
<polygon fill="#63b8ff" stroke="#63b8ff" points="1067.25,-387 1057.76,-391.73 1068.12,-393.95 1067.25,-387"/>
</a>
</g>
</g>
<!-- Node24&#45;&gt;Node4 -->
<g id="edge39_Node000024_Node000004" class="edge">
<title>Node24&#45;&gt;Node4</title>
<g id="a_edge39_Node000024_Node000004"><a xlink:title=" ">
<path fill="none" stroke="#63b8ff" d="M1067.82,-388.79C1131.18,-380.12 1223.5,-355.47 1223.5,-285.5 1223.5,-285.5 1223.5,-285.5 1223.5,-173.5 1223.5,-153.27 934.16,-93.69 829.62,-72.82"/>
<polygon fill="#63b8ff" stroke="#63b8ff" points="1067.01,-385.37 1057.53,-390.1 1067.89,-392.31 1067.01,-385.37"/>
</a>
</g>
</g>
<!-- Node24&#45;&gt;Node5 -->
<g id="edge42_Node000024_Node000005" class="edge">
<title>Node24&#45;&gt;Node5</title>
<g id="a_edge42_Node000024_Node000005"><a xlink:title=" ">
<path fill="none" stroke="#63b8ff" d="M1067.98,-392.99C1142.43,-388.9 1261.5,-369.26 1261.5,-285.5 1261.5,-285.5 1261.5,-285.5 1261.5,-118.5 1261.5,-38.4 970.76,-16.81 873.65,-11.83"/>
<polygon fill="#63b8ff" stroke="#63b8ff" points="1067.61,-389.51 1057.79,-393.47 1067.94,-396.5 1067.61,-389.51"/>
</a>
</g>
</g>
<!-- Node24&#45;&gt;Node15 -->
<g id="edge38_Node000024_Node000015" class="edge">
<title>Node24&#45;&gt;Node15</title>
<g id="a_edge38_Node000024_Node000015"><a xlink:title=" ">
<path fill="none" stroke="#63b8ff" d="M950.97,-387.09C881.69,-379.26 762.93,-365.05 661.5,-349 658.52,-348.53 655.43,-348.01 652.33,-347.47"/>
<polygon fill="#63b8ff" stroke="#63b8ff" points="950.91,-390.61 961.24,-388.25 951.69,-383.65 950.91,-390.61"/>
</a>
</g>
</g>
<!-- Node24&#45;&gt;Node16 -->
<g id="edge37_Node000024_Node000016" class="edge">
<title>Node24&#45;&gt;Node16</title>
<g id="a_edge37_Node000024_Node000016"><a xlink:title=" ">
<path fill="none" stroke="#63b8ff" d="M982.38,-380.43C935.91,-358.02 842.27,-312.87 803.23,-294.05"/>
<polygon fill="#63b8ff" stroke="#63b8ff" points="981.02,-383.65 991.55,-384.84 984.06,-377.35 981.02,-383.65"/>
</a>
</g>
</g>
<!-- Node24&#45;&gt;Node17 -->
<g id="edge40_Node000024_Node000017" class="edge">
<title>Node24&#45;&gt;Node17</title>
<g id="a_edge40_Node000024_Node000017"><a xlink:title=" ">
<path fill="none" stroke="#63b8ff" d="M995.44,-377C975.63,-353.73 940.18,-312.13 924.88,-294.16"/>
<polygon fill="#63b8ff" stroke="#63b8ff" points="992.82,-379.32 1001.97,-384.66 998.15,-374.78 992.82,-379.32"/>
</a>
</g>
</g>
<!-- Node24&#45;&gt;Node18 -->
<g id="edge43_Node000024_Node000018" class="edge">
<title>Node24&#45;&gt;Node18</title>
<g id="a_edge43_Node000024_Node000018"><a xlink:title=" ">
<path fill="none" stroke="#63b8ff" d="M1022.31,-376.92C1033.35,-363.31 1050.19,-344.05 1067.5,-330 1091.94,-310.16 1112.89,-321.34 1128.5,-294 1142.36,-269.73 1106.98,-249.83 1081.33,-239.11"/>
<polygon fill="#63b8ff" stroke="#63b8ff" points="1019.42,-374.93 1015.95,-384.94 1024.9,-379.28 1019.42,-374.93"/>
</a>
</g>
</g>
<!-- Node24&#45;&gt;Node22 -->
<g id="edge44_Node000024_Node000022" class="edge">
<title>Node24&#45;&gt;Node22</title>
<g id="a_edge44_Node000024_Node000022"><a xlink:title=" ">
<path fill="none" stroke="#63b8ff" d="M1015.69,-375.19C1020.2,-362.36 1026.7,-344.91 1033.5,-330 1039.33,-317.22 1047.25,-303.03 1052.37,-294.19"/>
<polygon fill="#63b8ff" stroke="#63b8ff" points="1012.35,-374.13 1012.4,-384.72 1018.97,-376.41 1012.35,-374.13"/>
</a>
</g>
</g>
<!-- Node25 -->
<g id="Node000025" class="node">
<title>Node25</title>
<g id="a_Node000025"><a xlink:href="test__dice_8cpp.html" target="_top" xlink:title="Tests for the shared dice engine (rpg_os::DiceExpression, rpg_os::DefaultRandom).">
<polygon fill="white" stroke="#666666" points="1157,-349 1076,-349 1076,-330 1157,-330 1157,-349"/>
<text text-anchor="middle" x="1116.5" y="-337" font-family="Helvetica,sans-Serif" font-size="10.00">test_dice.cpp</text>
</a>
</g>
</g>
<!-- Node24&#45;&gt;Node25 -->
<g id="edge45_Node000024_Node000025" class="edge">
<title>Node24&#45;&gt;Node25</title>
<g id="a_edge45_Node000024_Node000025"><a xlink:title=" ">
<path fill="none" stroke="#63b8ff" d="M1035.74,-380.5C1055.43,-370.75 1081.82,-357.68 1099,-349.17"/>
<polygon fill="#63b8ff" stroke="#63b8ff" points="1034.1,-377.41 1026.69,-384.98 1037.21,-383.68 1034.1,-377.41"/>
</a>
</g>
</g>
<!-- Node24&#45;&gt;Node26 -->
<g id="edge46_Node000024_Node000026" class="edge">
<title>Node24&#45;&gt;Node26</title>
<g id="a_edge46_Node000024_Node000026"><a xlink:title=" ">
<path fill="none" stroke="#63b8ff" d="M951.54,-383.23C892.48,-372.76 802.43,-356.8 750.75,-347.63"/>
<polygon fill="#63b8ff" stroke="#63b8ff" points="951,-386.69 961.46,-384.98 952.22,-379.79 951,-386.69"/>
</a>
</g>
</g>
<!-- Node26&#45;&gt;Node3 -->
<g id="edge51_Node000026_Node000003" class="edge">
<title>Node26&#45;&gt;Node3</title>
<g id="a_edge51_Node000026_Node000003"><a xlink:title=" ">
<path fill="none" stroke="#63b8ff" d="M703.38,-320.51C697.79,-307.36 689.32,-289.39 679.5,-275 637.41,-213.31 571.67,-151.35 547.15,-129.11"/>
<polygon fill="#63b8ff" stroke="#63b8ff" points="700.18,-321.94 707.22,-329.86 706.66,-319.28 700.18,-321.94"/>
</a>
</g>
</g>
<!-- Node26&#45;&gt;Node4 -->
<g id="edge48_Node000026_Node000004" class="edge">
<title>Node26&#45;&gt;Node4</title>
<g id="a_edge48_Node000026_Node000004"><a xlink:title=" ">
<path fill="none" stroke="#63b8ff" d="M696.57,-321.86C690.52,-313.87 683.84,-303.9 679.5,-294 667.91,-267.53 665.5,-259.4 665.5,-230.5 665.5,-230.5 665.5,-230.5 665.5,-173.5 665.5,-120.68 730.04,-88.28 767.1,-74.03"/>
<polygon fill="#63b8ff" stroke="#63b8ff" points="694.01,-324.27 702.97,-329.92 699.49,-319.91 694.01,-324.27"/>
</a>
</g>
</g>
<!-- Node26&#45;&gt;Node14 -->
<g id="edge53_Node000026_Node000014" class="edge">
<title>Node26&#45;&gt;Node14</title>
<g id="a_edge53_Node000026_Node000014"><a xlink:title=" ">
<path fill="none" stroke="#63b8ff" d="M685.92,-324.51C674.17,-316.79 660.69,-306.27 651.5,-294 633.41,-269.85 627.5,-260.67 627.5,-230.5 627.5,-230.5 627.5,-230.5 627.5,-173.5 627.5,-132.21 660.81,-91.48 676.94,-74.17"/>
<polygon fill="#63b8ff" stroke="#63b8ff" points="684.13,-327.52 694.47,-329.85 687.84,-321.58 684.13,-327.52"/>
</a>
</g>
</g>
<!-- Node26&#45;&gt;Node16 -->
<g id="edge47_Node000026_Node000016" class="edge">
<title>Node26&#45;&gt;Node16</title>
<g id="a_edge47_Node000026_Node000016"><a xlink:title=" ">
<path fill="none" stroke="#63b8ff" d="M730.81,-324.15C744.36,-314.57 761.74,-302.29 773.23,-294.17"/>
<polygon fill="#63b8ff" stroke="#63b8ff" points="728.7,-321.36 722.55,-329.98 732.74,-327.07 728.7,-321.36"/>
</a>
</g>
</g>
<!-- Node26&#45;&gt;Node17 -->
<g id="edge49_Node000026_Node000017" class="edge">
<title>Node26&#45;&gt;Node17</title>
<g id="a_edge49_Node000026_Node000017"><a xlink:title=" ">
<path fill="none" stroke="#63b8ff" d="M753.71,-327.44C792.46,-317.52 848.53,-303.16 883.98,-294.08"/>
<polygon fill="#63b8ff" stroke="#63b8ff" points="752.58,-324.11 743.76,-329.98 754.31,-330.89 752.58,-324.11"/>
</a>
</g>
</g>
<!-- Node26&#45;&gt;Node20 -->
<g id="edge50_Node000026_Node000020" class="edge">
<title>Node26&#45;&gt;Node20</title>
<g id="a_edge50_Node000026_Node000020"><a xlink:title=" ">
<path fill="none" stroke="#63b8ff" d="M680.91,-325.86C661.5,-317.34 635.7,-305.58 613.5,-294 578.79,-275.89 539.5,-251.86 519.23,-239.18"/>
<polygon fill="#63b8ff" stroke="#63b8ff" points="679.58,-329.1 690.15,-329.88 682.38,-322.68 679.58,-329.1"/>
</a>
</g>
</g>
<!-- Node26&#45;&gt;Node22 -->
<g id="edge52_Node000026_Node000022" class="edge">
<title>Node26&#45;&gt;Node22</title>
<g id="a_edge52_Node000026_Node000022"><a xlink:title=" ">
<path fill="none" stroke="#63b8ff" d="M760.9,-330.8C824.96,-321.02 935.19,-304.18 1001.72,-294.02"/>
<polygon fill="#63b8ff" stroke="#63b8ff" points="760,-327.4 750.64,-332.37 761.06,-334.32 760,-327.4"/>
</a>
</g>
</g>
</g>
</svg>

<g id="navigator" transform="translate(0 0)" fill="#404254">
  <rect fill="#f2f5e9" fill-opacity="0.5" stroke="#606060" stroke-width=".5" x="0" y="0" width="60" height="60"/>
  <use id="zoomplus" xlink:href="#zoomPlus" x="17" y="9" onmousedown="handleZoom(evt,'in')"/>
  <use id="zoomminus" xlink:href="#zoomMin" x="42" y="9" onmousedown="handleZoom(evt,'out')"/>
  <use id="reset" xlink:href="#resetDef" x="30" y="36" onmousedown="handleReset()"/>
   <use id="arrowup" xlink:href="#arrowUp" x="0" y="0" onmousedown="handlePan(0,-1)"/>
  <use id="arrowright" xlink:href="#arrowRight" x="0" y="0" onmousedown="handlePan(1,0)"/>
  <use id="arrowdown" xlink:href="#arrowDown" x="0" y="0" onmousedown="handlePan(0,1)"/>
  <use id="arrowleft" xlink:href="#arrowLeft" x="0" y="0" onmousedown="handlePan(-1,0)"/>
</g>
<svg viewBox="0 0 15 15" width="100%" height="30px" preserveAspectRatio="xMaxYMin meet">
 <g id="arrow_out" transform="scale(0.3 0.3)">
  <a xlink:href="concepts_8hpp__dep__incl_org.svg" target="_base">
   <rect id="button" ry="5" rx="5" y="6" x="6" height="38" width="38"
        fill="#f2f5e9" fill-opacity="0.5" stroke="#606060" stroke-width="1.0"/>
   <path id="arrow"
     d="M 11.500037,31.436501 C 11.940474,20.09759 22.043105,11.32322 32.158766,21.979434 L 37.068811,17.246167 C 37.068811,17.246167 37.088388,32 37.088388,32 L 22.160133,31.978069 C 22.160133,31.978069 26.997745,27.140456 26.997745,27.140456 C 18.528582,18.264221 13.291696,25.230495 11.500037,31.436501 z"
     style="fill:#404040;"/>
  </a>
 </g>
</svg>

<style type='text/css'>
<![CDATA[
[data-mouse-over-selected='false'] { opacity: 0.7; }
[data-mouse-over-selected='true']  { opacity: 1.0; }
]]>
</style>
<script type="application/ecmascript"><![CDATA[
document.addEventListener('DOMContentLoaded', (event) => {
  highlightEdges();
  highlightAdjacentNodes();
});
]]></script>
</svg>
