<?xml version="1.0" encoding="UTF-8" standalone="no"?>
<!DOCTYPE svg PUBLIC "-//W3C//DTD SVG 1.1//EN"
 "http://www.w3.org/Graphics/SVG/1.1/DTD/svg11.dtd">
<!-- Generated by graphviz version 2.43.0 (0)
 -->
<!-- Title: engine.hpp Pages: 1 -->
<svg width="1040pt" height="137pt"
 viewBox="0.00 0.00 1039.50 137.00" xmlns="http://www.w3.org/2000/svg" xmlns:xlink="http://www.w3.org/1999/xlink">
<g id="graph0" class="graph" transform="scale(1 1) rotate(0) translate(4 133)">
<title>engine.hpp</title>
<!-- Node1 -->
<g id="Node000001" class="node">
<title>Node1</title>
<g id="a_Node000001"><a xlink:title="RulesetEngine facade (universal mode).">
<polygon fill="#999999" stroke="#666666" points="464.5,-129 393.5,-129 393.5,-110 464.5,-110 464.5,-129"/>
<text text-anchor="middle" x="429" y="-117" font-family="Helvetica,sans-Serif" font-size="10.00">engine.hpp</text>
</a>
</g>
</g>
<!-- Node2 -->
<g id="Node000002" class="node">
<title>Node2</title>
<g id="a_Node000002"><a xlink:href="combat_8hpp.html" target="_top" xlink:title="Combat simulation helpers (universal mode).">
<polygon fill="white" stroke="#666666" points="157,-74 83,-74 83,-55 157,-55 157,-74"/>
<text text-anchor="middle" x="120" y="-62" font-family="Helvetica,sans-Serif" font-size="10.00">combat.hpp</text>
</a>
</g>
</g>
<!-- Node1&#45;&gt;Node2 -->
<g id="edge1_Node000001_Node000002" class="edge">
<title>Node1&#45;&gt;Node2</title>
<g id="a_edge1_Node000001_Node000002"><a xlink:title=" ">
<path fill="none" stroke="#63b8ff" d="M383.08,-110.62C321.69,-100.09 214.04,-81.63 157.35,-71.91"/>
<polygon fill="#63b8ff" stroke="#63b8ff" points="382.8,-114.13 393.25,-112.37 383.99,-107.23 382.8,-114.13"/>
</a>
</g>
</g>
<!-- Node3 -->
<g id="Node000003" class="node">
<title>Node3</title>
<g id="a_Node000003"><a xlink:href="fight_2main_8cpp.html" target="_top" xlink:title="Fight&#45;to&#45;the&#45;end demo (universal mode).">
<polygon fill="white" stroke="#666666" points="62,-19 0,-19 0,0 62,0 62,-19"/>
<text text-anchor="middle" x="31" y="-7" font-family="Helvetica,sans-Serif" font-size="10.00">main.cpp</text>
</a>
</g>
</g>
<!-- Node1&#45;&gt;Node3 -->
<g id="edge7_Node000001_Node000003" class="edge">
<title>Node1&#45;&gt;Node3</title>
<g id="a_edge7_Node000001_Node000003"><a xlink:title=" ">
<path fill="none" stroke="#63b8ff" d="M383.37,-117.4C299.53,-114.64 124.89,-105.21 74,-74 52.89,-61.05 39.76,-33.4 34.15,-19.24"/>
<polygon fill="#63b8ff" stroke="#63b8ff" points="383.26,-120.9 393.37,-117.71 383.48,-113.9 383.26,-120.9"/>
</a>
</g>
</g>
<!-- Node4 -->
<g id="Node000004" class="node">
<title>Node4</title>
<g id="a_Node000004"><a xlink:href="test__bookkeeping_8cpp.html" target="_top" xlink:title="Tests for the universal bookkeeping layer.">
<polygon fill="white" stroke="#666666" points="319.5,-19 196.5,-19 196.5,0 319.5,0 319.5,-19"/>
<text text-anchor="middle" x="258" y="-7" font-family="Helvetica,sans-Serif" font-size="10.00">test_bookkeeping.cpp</text>
</a>
</g>
</g>
<!-- Node1&#45;&gt;Node4 -->
<g id="edge9_Node000001_Node000004" class="edge">
<title>Node1&#45;&gt;Node4</title>
<g id="a_edge9_Node000001_Node000004"><a xlink:title=" ">
<path fill="none" stroke="#63b8ff" d="M382.99,-116.04C324.12,-111.82 227.07,-100.89 205,-74 188.78,-54.24 220.74,-31.26 241.72,-19.09"/>
<polygon fill="#63b8ff" stroke="#63b8ff" points="382.95,-119.55 393.16,-116.73 383.42,-112.56 382.95,-119.55"/>
</a>
</g>
</g>
<!-- Node6 -->
<g id="Node000006" class="node">
<title>Node6</title>
<g id="a_Node000006"><a xlink:href="game__session_8hpp.html" target="_top" xlink:title="The application&#45;facing facade (&quot;OS kernel&quot;).">
<polygon fill="white" stroke="#666666" points="320.5,-74 213.5,-74 213.5,-55 320.5,-55 320.5,-74"/>
<text text-anchor="middle" x="267" y="-62" font-family="Helvetica,sans-Serif" font-size="10.00">game_session.hpp</text>
</a>
</g>
</g>
<!-- Node1&#45;&gt;Node6 -->
<g id="edge5_Node000001_Node000006" class="edge">
<title>Node1&#45;&gt;Node6</title>
<g id="a_edge5_Node000001_Node000006"><a xlink:title=" ">
<path fill="none" stroke="#63b8ff" d="M393.23,-106.8C363,-96.91 320.39,-82.97 293.23,-74.08"/>
<polygon fill="#63b8ff" stroke="#63b8ff" points="392.38,-110.2 402.97,-109.98 394.56,-103.55 392.38,-110.2"/>
</a>
</g>
</g>
<!-- Node7 -->
<g id="Node000007" class="node">
<title>Node7</title>
<g id="a_Node000007"><a xlink:href="universal__mode_2main_8cpp.html" target="_top" xlink:title="Universal mode demo: load any ruleset JSON at runtime and resolve rules generically.">
<polygon fill="white" stroke="#666666" points="401,-74 339,-74 339,-55 401,-55 401,-74"/>
<text text-anchor="middle" x="370" y="-62" font-family="Helvetica,sans-Serif" font-size="10.00">main.cpp</text>
</a>
</g>
</g>
<!-- Node1&#45;&gt;Node7 -->
<g id="edge8_Node000001_Node000007" class="edge">
<title>Node1&#45;&gt;Node7</title>
<g id="a_edge8_Node000001_Node000007"><a xlink:title=" ">
<path fill="none" stroke="#63b8ff" d="M411.8,-103.04C401.33,-93.64 388.35,-81.98 379.65,-74.17"/>
<polygon fill="#63b8ff" stroke="#63b8ff" points="409.74,-105.91 419.52,-109.98 414.42,-100.7 409.74,-105.91"/>
</a>
</g>
</g>
<!-- Node8 -->
<g id="Node000008" class="node">
<title>Node8</title>
<g id="a_Node000008"><a xlink:href="test__codegen__output_8cpp.html" target="_top" xlink:title="Tests for the generated &quot;specific mode&quot; headers in generated/.">
<polygon fill="white" stroke="#666666" points="558.5,-74 419.5,-74 419.5,-55 558.5,-55 558.5,-74"/>
<text text-anchor="middle" x="489" y="-62" font-family="Helvetica,sans-Serif" font-size="10.00">test_codegen_output.cpp</text>
</a>
</g>
</g>
<!-- Node1&#45;&gt;Node8 -->
<g id="edge10_Node000001_Node000008" class="edge">
<title>Node1&#45;&gt;Node8</title>
<g id="a_edge10_Node000001_Node000008"><a xlink:title=" ">
<path fill="none" stroke="#63b8ff" d="M446.18,-103.32C456.88,-93.87 470.26,-82.06 479.18,-74.17"/>
<polygon fill="#63b8ff" stroke="#63b8ff" points="443.82,-100.74 438.64,-109.98 448.45,-105.99 443.82,-100.74"/>
</a>
</g>
</g>
<!-- Node9 -->
<g id="Node000009" class="node">
<title>Node9</title>
<g id="a_Node000009"><a xlink:href="test__data__api_8cpp.html" target="_top" xlink:title="Tests for the engine&#39;s full&#45;coverage data API.">
<polygon fill="white" stroke="#666666" points="679.5,-74 576.5,-74 576.5,-55 679.5,-55 679.5,-74"/>
<text text-anchor="middle" x="628" y="-62" font-family="Helvetica,sans-Serif" font-size="10.00">test_data_api.cpp</text>
</a>
</g>
</g>
<!-- Node1&#45;&gt;Node9 -->
<g id="edge11_Node000001_Node000009" class="edge">
<title>Node1&#45;&gt;Node9</title>
<g id="a_edge11_Node000001_Node000009"><a xlink:title=" ">
<path fill="none" stroke="#63b8ff" d="M471.01,-107.31C508.25,-97.39 561.84,-83.12 595.78,-74.08"/>
<polygon fill="#63b8ff" stroke="#63b8ff" points="469.74,-104.03 460.97,-109.98 471.54,-110.79 469.74,-104.03"/>
</a>
</g>
</g>
<!-- Node10 -->
<g id="Node000010" class="node">
<title>Node10</title>
<g id="a_Node000010"><a xlink:href="test__engine_8cpp.html" target="_top" xlink:title="Integration tests for the universal engine facade (rpg_os::RulesetEngine).">
<polygon fill="white" stroke="#666666" points="792,-74 698,-74 698,-55 792,-55 792,-74"/>
<text text-anchor="middle" x="745" y="-62" font-family="Helvetica,sans-Serif" font-size="10.00">test_engine.cpp</text>
</a>
</g>
</g>
<!-- Node1&#45;&gt;Node10 -->
<g id="edge12_Node000001_Node000010" class="edge">
<title>Node1&#45;&gt;Node10</title>
<g id="a_edge12_Node000001_Node000010"><a xlink:title=" ">
<path fill="none" stroke="#63b8ff" d="M474.5,-110.87C534,-100.89 637.73,-83.49 697.97,-73.39"/>
<polygon fill="#63b8ff" stroke="#63b8ff" points="473.92,-107.42 464.63,-112.52 475.08,-114.32 473.92,-107.42"/>
</a>
</g>
</g>
<!-- Node11 -->
<g id="Node000011" class="node">
<title>Node11</title>
<g id="a_Node000011"><a xlink:href="test__rulesets_8cpp.html" target="_top" xlink:title="Tests that load the real shipped rulesets (the rulesets/ JSON files).">
<polygon fill="white" stroke="#666666" points="910,-74 810,-74 810,-55 910,-55 910,-74"/>
<text text-anchor="middle" x="860" y="-62" font-family="Helvetica,sans-Serif" font-size="10.00">test_rulesets.cpp</text>
</a>
</g>
</g>
<!-- Node1&#45;&gt;Node11 -->
<g id="edge13_Node000001_Node000011" class="edge">
<title>Node1&#45;&gt;Node11</title>
<g id="a_edge13_Node000001_Node000011"><a xlink:title=" ">
<path fill="none" stroke="#63b8ff" d="M474.96,-113.36C545.26,-105.42 683.69,-89.46 801,-74 803.87,-73.62 806.82,-73.22 809.8,-72.82"/>
<polygon fill="#63b8ff" stroke="#63b8ff" points="474.23,-109.92 464.69,-114.52 475.02,-116.88 474.23,-109.92"/>
</a>
</g>
</g>
<!-- Node12 -->
<g id="Node000012" class="node">
<title>Node12</title>
<g id="a_Node000012"><a xlink:href="test__variance_8cpp.html" target="_top" xlink:title="Tests for variance / range selection (rpg_os::Variance, rpg_os::readVariantValue).">
<polygon fill="white" stroke="#666666" points="1031.5,-74 928.5,-74 928.5,-55 1031.5,-55 1031.5,-74"/>
<text text-anchor="middle" x="980" y="-62" font-family="Helvetica,sans-Serif" font-size="10.00">test_variance.cpp</text>
</a>
</g>
</g>
<!-- Node1&#45;&gt;Node12 -->
<g id="edge14_Node000001_Node000012" class="edge">
<title>Node1&#45;&gt;Node12</title>
<g id="a_edge14_Node000001_Node000012"><a xlink:title=" ">
<path fill="none" stroke="#63b8ff" d="M474.76,-115.08C561.53,-108.43 755.91,-92.76 919,-74 922.08,-73.65 925.25,-73.26 928.44,-72.86"/>
<polygon fill="#63b8ff" stroke="#63b8ff" points="474.42,-111.6 464.72,-115.85 474.96,-118.57 474.42,-111.6"/>
</a>
</g>
</g>
<!-- Node2&#45;&gt;Node3 -->
<g id="edge2_Node000002_Node000003" class="edge">
<title>Node2&#45;&gt;Node3</title>
<g id="a_edge2_Node000002_Node000003"><a xlink:title=" ">
<path fill="none" stroke="#63b8ff" d="M96.82,-49.7C80.61,-40.04 59.45,-27.44 45.56,-19.17"/>
<polygon fill="#63b8ff" stroke="#63b8ff" points="95.32,-52.88 105.7,-54.98 98.9,-46.86 95.32,-52.88"/>
</a>
</g>
</g>
<!-- Node2&#45;&gt;Node4 -->
<g id="edge3_Node000002_Node000004" class="edge">
<title>Node2&#45;&gt;Node4</title>
<g id="a_edge3_Node000002_Node000004"><a xlink:title=" ">
<path fill="none" stroke="#63b8ff" d="M151.79,-51.29C177.37,-41.47 212.67,-27.91 235.42,-19.17"/>
<polygon fill="#63b8ff" stroke="#63b8ff" points="150.25,-48.13 142.17,-54.98 152.76,-54.67 150.25,-48.13"/>
</a>
</g>
</g>
<!-- Node5 -->
<g id="Node000005" class="node">
<title>Node5</title>
<g id="a_Node000005"><a xlink:href="test__combat_8cpp.html" target="_top" xlink:title="Tests for the combat simulation helpers (include/rpg_os/universal/combat.hpp).">
<polygon fill="white" stroke="#666666" points="178,-19 80,-19 80,0 178,0 178,-19"/>
<text text-anchor="middle" x="129" y="-7" font-family="Helvetica,sans-Serif" font-size="10.00">test_combat.cpp</text>
</a>
</g>
</g>
<!-- Node2&#45;&gt;Node5 -->
<g id="edge4_Node000002_Node000005" class="edge">
<title>Node2&#45;&gt;Node5</title>
<g id="a_edge4_Node000002_Node000005"><a xlink:title=" ">
<path fill="none" stroke="#63b8ff" d="M123.2,-44.66C124.68,-35.93 126.37,-25.99 127.54,-19.09"/>
<polygon fill="#63b8ff" stroke="#63b8ff" points="119.71,-44.3 121.49,-54.75 126.61,-45.48 119.71,-44.3"/>
</a>
</g>
</g>
<!-- Node6&#45;&gt;Node4 -->
<g id="edge6_Node000006_Node000004" class="edge">
<title>Node6&#45;&gt;Node4</title>
<g id="a_edge6_Node000006_Node000004"><a xlink:title=" ">
<path fill="none" stroke="#63b8ff" d="M263.8,-44.66C262.32,-35.93 260.63,-25.99 259.46,-19.09"/>
<polygon fill="#63b8ff" stroke="#63b8ff" points="260.39,-45.48 265.51,-54.75 267.29,-44.3 260.39,-45.48"/>
</a>
</g>
</g>
</g>
</svg>
