<?xml version="1.0" encoding="UTF-8" standalone="no"?>
<!DOCTYPE svg PUBLIC "-//W3C//DTD SVG 1.1//EN"
 "http://www.w3.org/Graphics/SVG/1.1/DTD/svg11.dtd">
<!-- Generated by graphviz version 2.43.0 (0)
 -->
<!-- Title: equipment.hpp Pages: 1 -->
<!--zoomable 357 -->

<svg id="main" version="1.1" xmlns="http://www.w3.org/2000/svg" xmlns:xlink="http://www.w3.org/1999/xlink" xml:space="preserve" onload="init(evt)">
<style type="text/css"><![CDATA[
.node, .edge {opacity: 0.7;}
.node.selected, .edge.selected {opacity: 1;}
.edge:hover path { stroke: red; }
.edge:hover polygon { stroke: red; fill: red; }
]]></style>

<defs>
  <circle id="rim" cx="0" cy="0" r="7"/>
  <circle id="rim2" cx="0" cy="0" r="3.5"/>
  <g id="zoomPlus">
    <use xlink:href="#rim" fill="#404040"><set attributeName="fill" to="#808080" begin="zoomplus.mouseover" end="zoomplus.mouseout"/></use>
    <path d="M-4,0h8M0,-4v8" fill="none" stroke="white" stroke-width="1.5" pointer-events="none"/>
  </g>
  <g id="zoomMin">
    <use xlink:href="#rim" fill="#404040"><set attributeName="fill" to="#808080" begin="zoomminus.mouseover" end="zoomminus.mouseout"/></use>
    <path d="M-4,0h8" fill="none" stroke="white" stroke-width="1.5" pointer-events="none"/>
  </g>
  <g id="arrowUp" transform="translate(30 24)">
    <use xlink:href="#rim"/>
    <path pointer-events="none" fill="none" stroke="white" stroke-width="1.5" d="M0,-3.0v7 M-2.5,-0.5L0,-3.0L2.5,-0.5"/>
  </g>
  <g id="arrowRight" transform="rotate(90) translate(36 -43)">
    <use xlink:href="#rim"/>
    <path pointer-events="none" fill="none" stroke="white" stroke-width="1.5" d="M0,-3.0v7 M-2.5,-0.5L0,-3.0L2.5,-0.5"/>
  </g>
  <g id="arrowDown" transform="rotate(180) translate(-30 -48)">
    <use xlink:href="#rim"/>
    <path pointer-events="none" fill="none" stroke="white" stroke-width="1.5" d="M0,-3.0v7 M-2.5,-0.5L0,-3.0L2.5,-0.5"/>
  </g>
  <g id="arrowLeft" transform="rotate(270) translate(-36 17)">
    <use xlink:href="#rim"/>
    <path pointer-events="none" fill="none" stroke="white" stroke-width="1.5" d="M0,-3.0v7 M-2.5,-0.5L0,-3.0L2.5,-0.5"/>
  </g>
  <g id="resetDef">
    <use xlink:href="#rim2" fill="#404040"><set attributeName="fill" to="#808080" begin="reset.mouseover" end="reset.mouseout"/></use>
  </g>
</defs>
<script type="application/ecmascript">
var viewWidth = 1450;
var viewHeight = 357;
var sectionId = 'dynsection-1';
</script>
<script type="application/ecmascript" xlink:href="svg.min.js"/>
<svg id="graph" class="graph">
<g id="viewport">
<title>equipment.hpp</title>
<!-- Node1 -->
<g id="Node000001" class="node">
<title>Node1</title>
<g id="a_Node000001"><a xlink:title="Worn gear: a slot &#45;&gt; item map.">
<polygon fill="#999999" stroke="#666666" points="342.5,-349 252.5,-349 252.5,-330 342.5,-330 342.5,-349"/>
<text text-anchor="middle" x="297.5" y="-337" font-family="Helvetica,sans-Serif" font-size="10.00">equipment.hpp</text>
</a>
</g>
</g>
<!-- Node2 -->
<g id="Node000002" class="node">
<title>Node2</title>
<g id="a_Node000002"><a xlink:href="brp__ugc__static_8hpp.html" target="_top" xlink:title="Strongly typed Basic Roleplaying: Universal Game Engine class, generated from the ruleset schema by t...">
<polygon fill="white" stroke="#666666" points="123.5,-239 15.5,-239 15.5,-220 123.5,-220 123.5,-239"/>
<text text-anchor="middle" x="69.5" y="-227" font-family="Helvetica,sans-Serif" font-size="10.00">brp_ugc_static.hpp</text>
</a>
</g>
</g>
<!-- Node1&#45;&gt;Node2 -->
<g id="edge1_Node000001_Node000002" class="edge">
<title>Node1&#45;&gt;Node2</title>
<g id="a_edge1_Node000001_Node000002"><a xlink:title=" ">
<path fill="none" stroke="#63b8ff" d="M242.18,-333.1C188.02,-326.72 110.53,-314.32 88.5,-294 72.93,-279.65 69.93,-253.12 69.47,-239.34"/>
<polygon fill="#63b8ff" stroke="#63b8ff" points="242,-336.6 252.34,-334.26 242.8,-329.65 242,-336.6"/>
</a>
</g>
</g>
<!-- Node4 -->
<g id="Node000004" class="node">
<title>Node4</title>
<g id="a_Node000004"><a xlink:href="dnd5e__srd__static_8hpp.html" target="_top" xlink:title="Strongly typed Dungeons &amp; Dragons 5th Edition (SRD 5.2.1) class, generated from the ruleset schema by...">
<polygon fill="white" stroke="#666666" points="217.5,-294 97.5,-294 97.5,-275 217.5,-275 217.5,-294"/>
<text text-anchor="middle" x="157.5" y="-282" font-family="Helvetica,sans-Serif" font-size="10.00">dnd5e_srd_static.hpp</text>
</a>
</g>
</g>
<!-- Node1&#45;&gt;Node4 -->
<g id="edge3_Node000001_Node000004" class="edge">
<title>Node1&#45;&gt;Node4</title>
<g id="a_edge3_Node000001_Node000004"><a xlink:title=" ">
<path fill="none" stroke="#63b8ff" d="M265.59,-326.42C239.62,-316.59 203.58,-302.95 180.4,-294.17"/>
<polygon fill="#63b8ff" stroke="#63b8ff" points="264.42,-329.72 275.01,-329.98 266.89,-323.17 264.42,-329.72"/>
</a>
</g>
</g>
<!-- Node6 -->
<g id="Node000006" class="node">
<title>Node6</title>
<g id="a_Node000006"><a xlink:href="dynamic__entity_8hpp.html" target="_top" xlink:title="Dynamic entity (universal mode).">
<polygon fill="white" stroke="#666666" points="847.5,-294 735.5,-294 735.5,-275 847.5,-275 847.5,-294"/>
<text text-anchor="middle" x="791.5" y="-282" font-family="Helvetica,sans-Serif" font-size="10.00">dynamic_entity.hpp</text>
</a>
</g>
</g>
<!-- Node1&#45;&gt;Node6 -->
<g id="edge6_Node000001_Node000006" class="edge">
<title>Node1&#45;&gt;Node6</title>
<g id="a_edge6_Node000001_Node000006"><a xlink:title=" ">
<path fill="none" stroke="#63b8ff" d="M352.6,-332.59C447.33,-322.43 640.04,-301.75 735.43,-291.52"/>
<polygon fill="#63b8ff" stroke="#63b8ff" points="352.22,-329.11 342.65,-333.66 352.97,-336.07 352.22,-329.11"/>
</a>
</g>
</g>
<!-- Node12 -->
<g id="Node000012" class="node">
<title>Node12</title>
<g id="a_Node000012"><a xlink:href="test__fixtures_8hpp.html" target="_top" xlink:title="Shared fixtures for the bookkeeping test suite.">
<polygon fill="white" stroke="#666666" points="947.5,-74 849.5,-74 849.5,-55 947.5,-55 947.5,-74"/>
<text text-anchor="middle" x="898.5" y="-62" font-family="Helvetica,sans-Serif" font-size="10.00">test_fixtures.hpp</text>
</a>
</g>
</g>
<!-- Node1&#45;&gt;Node12 -->
<g id="edge48_Node000001_Node000012" class="edge">
<title>Node1&#45;&gt;Node12</title>
<g id="a_edge48_Node000001_Node000012"><a xlink:title=" ">
<path fill="none" stroke="#63b8ff" d="M352.82,-337.11C474.79,-333.56 763.41,-322.36 856.5,-294 911.61,-277.21 969.5,-288.11 969.5,-230.5 969.5,-230.5 969.5,-230.5 969.5,-173.5 969.5,-130.19 929.15,-90.8 909.28,-74.03"/>
<polygon fill="#63b8ff" stroke="#63b8ff" points="352.48,-333.62 342.58,-337.4 352.68,-340.62 352.48,-333.62"/>
</a>
</g>
</g>
<!-- Node35 -->
<g id="Node000035" class="node">
<title>Node35</title>
<g id="a_Node000035"><a xlink:href="tde5e__core__static_8hpp.html" target="_top" xlink:title="Strongly typed The Dark Eye 5th Edition (Core Rules) class, generated from the ruleset schema by the ...">
<polygon fill="white" stroke="#666666" points="359.5,-294 235.5,-294 235.5,-275 359.5,-275 359.5,-294"/>
<text text-anchor="middle" x="297.5" y="-282" font-family="Helvetica,sans-Serif" font-size="10.00">tde5e_core_static.hpp</text>
</a>
</g>
</g>
<!-- Node1&#45;&gt;Node35 -->
<g id="edge45_Node000001_Node000035" class="edge">
<title>Node1&#45;&gt;Node35</title>
<g id="a_edge45_Node000001_Node000035"><a xlink:title=" ">
<path fill="none" stroke="#63b8ff" d="M297.5,-319.66C297.5,-310.93 297.5,-300.99 297.5,-294.09"/>
<polygon fill="#63b8ff" stroke="#63b8ff" points="294,-319.75 297.5,-329.75 301,-319.75 294,-319.75"/>
</a>
</g>
</g>
<!-- Node3 -->
<g id="Node000003" class="node">
<title>Node3</title>
<g id="a_Node000003"><a xlink:href="test__codegen__output_8cpp.html" target="_top" xlink:title="Tests for the generated &quot;specific mode&quot; headers in generated/.">
<polygon fill="white" stroke="#666666" points="139,-129 0,-129 0,-110 139,-110 139,-129"/>
<text text-anchor="middle" x="69.5" y="-117" font-family="Helvetica,sans-Serif" font-size="10.00">test_codegen_output.cpp</text>
</a>
</g>
</g>
<!-- Node2&#45;&gt;Node3 -->
<g id="edge2_Node000002_Node000003" class="edge">
<title>Node2&#45;&gt;Node3</title>
<g id="a_edge2_Node000002_Node000003"><a xlink:title=" ">
<path fill="none" stroke="#63b8ff" d="M69.5,-209.48C69.5,-185.84 69.5,-146.5 69.5,-129.16"/>
<polygon fill="#63b8ff" stroke="#63b8ff" points="66,-209.66 69.5,-219.66 73,-209.66 66,-209.66"/>
</a>
</g>
</g>
<!-- Node4&#45;&gt;Node3 -->
<g id="edge5_Node000004_Node000003" class="edge">
<title>Node4&#45;&gt;Node3</title>
<g id="a_edge5_Node000004_Node000003"><a xlink:title=" ">
<path fill="none" stroke="#63b8ff" d="M151.29,-265.05C146.69,-252.16 139.96,-234.69 132.5,-220 114.64,-184.81 87.9,-146.13 75.82,-129.22"/>
<polygon fill="#63b8ff" stroke="#63b8ff" points="148.03,-266.34 154.61,-274.64 154.64,-264.05 148.03,-266.34"/>
</a>
</g>
</g>
<!-- Node5 -->
<g id="Node000005" class="node">
<title>Node5</title>
<g id="a_Node000005"><a xlink:href="specific__mode_2main_8cpp.html" target="_top" xlink:title="Specific mode demo: use the code&#45;generated, strongly typed headers.">
<polygon fill="white" stroke="#666666" points="251.5,-239 189.5,-239 189.5,-220 251.5,-220 251.5,-239"/>
<text text-anchor="middle" x="220.5" y="-227" font-family="Helvetica,sans-Serif" font-size="10.00">main.cpp</text>
</a>
</g>
</g>
<!-- Node4&#45;&gt;Node5 -->
<g id="edge4_Node000004_Node000005" class="edge">
<title>Node4&#45;&gt;Node5</title>
<g id="a_edge4_Node000004_Node000005"><a xlink:title=" ">
<path fill="none" stroke="#63b8ff" d="M175.54,-268.32C186.77,-258.87 200.82,-247.06 210.19,-239.17"/>
<polygon fill="#63b8ff" stroke="#63b8ff" points="173.02,-265.87 167.62,-274.98 177.53,-271.23 173.02,-265.87"/>
</a>
</g>
</g>
<!-- Node7 -->
<g id="Node000007" class="node">
<title>Node7</title>
<g id="a_Node000007"><a xlink:href="check__resolver_8hpp.html" target="_top" xlink:title="Check resolver (universal mode).">
<polygon fill="white" stroke="#666666" points="846.5,-239 736.5,-239 736.5,-220 846.5,-220 846.5,-239"/>
<text text-anchor="middle" x="791.5" y="-227" font-family="Helvetica,sans-Serif" font-size="10.00">check_resolver.hpp</text>
</a>
</g>
</g>
<!-- Node6&#45;&gt;Node7 -->
<g id="edge7_Node000006_Node000007" class="edge">
<title>Node6&#45;&gt;Node7</title>
<g id="a_edge7_Node000006_Node000007"><a xlink:title=" ">
<path fill="none" stroke="#63b8ff" d="M791.5,-264.66C791.5,-255.93 791.5,-245.99 791.5,-239.09"/>
<polygon fill="#63b8ff" stroke="#63b8ff" points="788,-264.75 791.5,-274.75 795,-264.75 788,-264.75"/>
</a>
</g>
</g>
<!-- Node8 -->
<g id="Node000008" class="node">
<title>Node8</title>
<g id="a_Node000008"><a xlink:href="engine_8hpp.html" target="_top" xlink:title=" ">
<polygon fill="white" stroke="#666666" points="715,-184 644,-184 644,-165 715,-165 715,-184"/>
<text text-anchor="middle" x="679.5" y="-172" font-family="Helvetica,sans-Serif" font-size="10.00">engine.hpp</text>
</a>
</g>
</g>
<!-- Node6&#45;&gt;Node8 -->
<g id="edge41_Node000006_Node000008" class="edge">
<title>Node6&#45;&gt;Node8</title>
<g id="a_edge41_Node000006_Node000008"><a xlink:title=" ">
<path fill="none" stroke="#63b8ff" d="M767.87,-269.62C755.17,-261.56 739.67,-250.7 727.5,-239 709.56,-221.76 693.12,-197.37 684.94,-184.41"/>
<polygon fill="#63b8ff" stroke="#63b8ff" points="766.19,-272.7 776.54,-274.97 769.87,-266.74 766.19,-272.7"/>
</a>
</g>
</g>
<!-- Node22 -->
<g id="Node000022" class="node">
<title>Node22</title>
<g id="a_Node000022"><a xlink:href="combat__session_8hpp.html" target="_top" xlink:title="Turn &amp; action&#45;economy orchestrator (universal mode).">
<polygon fill="white" stroke="#666666" points="1239.5,-129 1123.5,-129 1123.5,-110 1239.5,-110 1239.5,-129"/>
<text text-anchor="middle" x="1181.5" y="-117" font-family="Helvetica,sans-Serif" font-size="10.00">combat_session.hpp</text>
</a>
</g>
</g>
<!-- Node6&#45;&gt;Node22 -->
<g id="edge40_Node000006_Node000022" class="edge">
<title>Node6&#45;&gt;Node22</title>
<g id="a_edge40_Node000006_Node000022"><a xlink:title=" ">
<path fill="none" stroke="#63b8ff" d="M853.23,-273.03C920.64,-259.69 1030.09,-232.36 1113.5,-184 1139.21,-169.09 1163.09,-142.81 1174.49,-129.21"/>
<polygon fill="#63b8ff" stroke="#63b8ff" points="852.35,-269.63 843.19,-274.97 853.68,-276.51 852.35,-269.63"/>
</a>
</g>
</g>
<!-- Node34 -->
<g id="Node000034" class="node">
<title>Node34</title>
<g id="a_Node000034"><a xlink:href="entity__registry_8hpp.html" target="_top" xlink:title="Entity handles and a live&#45;instance registry (universal mode).">
<polygon fill="white" stroke="#666666" points="1105,-184 998,-184 998,-165 1105,-165 1105,-184"/>
<text text-anchor="middle" x="1051.5" y="-172" font-family="Helvetica,sans-Serif" font-size="10.00">entity_registry.hpp</text>
</a>
</g>
</g>
<!-- Node6&#45;&gt;Node34 -->
<g id="edge42_Node000006_Node000034" class="edge">
<title>Node6&#45;&gt;Node34</title>
<g id="a_edge42_Node000006_Node000034"><a xlink:title=" ">
<path fill="none" stroke="#63b8ff" d="M821.63,-270.98C875.1,-248.77 985.23,-203.03 1030.92,-184.05"/>
<polygon fill="#63b8ff" stroke="#63b8ff" points="820.23,-267.78 812.34,-274.84 822.92,-274.24 820.23,-267.78"/>
</a>
</g>
</g>
<!-- Node7&#45;&gt;Node8 -->
<g id="edge8_Node000007_Node000008" class="edge">
<title>Node7&#45;&gt;Node8</title>
<g id="a_edge8_Node000007_Node000008"><a xlink:title=" ">
<path fill="none" stroke="#63b8ff" d="M764.31,-215.63C743.68,-205.87 715.88,-192.71 697.82,-184.17"/>
<polygon fill="#63b8ff" stroke="#63b8ff" points="762.97,-218.87 773.51,-219.98 765.96,-212.54 762.97,-218.87"/>
</a>
</g>
</g>
<!-- Node33 -->
<g id="Node000033" class="node">
<title>Node33</title>
<g id="a_Node000033"><a xlink:href="test__check__resolver_8cpp.html" target="_top" xlink:title="Unit tests for the named&#45;check dispatch seam (rpg_os::CheckResolver).">
<polygon fill="white" stroke="#666666" points="867.5,-184 733.5,-184 733.5,-165 867.5,-165 867.5,-184"/>
<text text-anchor="middle" x="800.5" y="-172" font-family="Helvetica,sans-Serif" font-size="10.00">test_check_resolver.cpp</text>
</a>
</g>
</g>
<!-- Node7&#45;&gt;Node33 -->
<g id="edge39_Node000007_Node000033" class="edge">
<title>Node7&#45;&gt;Node33</title>
<g id="a_edge39_Node000007_Node000033"><a xlink:title=" ">
<path fill="none" stroke="#63b8ff" d="M794.7,-209.66C796.18,-200.93 797.87,-190.99 799.04,-184.09"/>
<polygon fill="#63b8ff" stroke="#63b8ff" points="791.21,-209.3 792.99,-219.75 798.11,-210.48 791.21,-209.3"/>
</a>
</g>
</g>
<!-- Node8&#45;&gt;Node3 -->
<g id="edge33_Node000008_Node000003" class="edge">
<title>Node8&#45;&gt;Node3</title>
<g id="a_edge33_Node000008_Node000003"><a xlink:title=" ">
<path fill="none" stroke="#63b8ff" d="M633.75,-169.88C542.42,-162.61 330.99,-145.49 153.5,-129 148.83,-128.57 144.01,-128.11 139.16,-127.64"/>
<polygon fill="#63b8ff" stroke="#63b8ff" points="633.52,-173.38 643.77,-170.68 634.08,-166.4 633.52,-173.38"/>
</a>
</g>
</g>
<!-- Node9 -->
<g id="Node000009" class="node">
<title>Node9</title>
<g id="a_Node000009"><a xlink:href="combat_8hpp.html" target="_top" xlink:title="Combat simulation helpers (universal mode).">
<polygon fill="white" stroke="#666666" points="823.5,-129 749.5,-129 749.5,-110 823.5,-110 823.5,-129"/>
<text text-anchor="middle" x="786.5" y="-117" font-family="Helvetica,sans-Serif" font-size="10.00">combat.hpp</text>
</a>
</g>
</g>
<!-- Node8&#45;&gt;Node9 -->
<g id="edge9_Node000008_Node000009" class="edge">
<title>Node8&#45;&gt;Node9</title>
<g id="a_edge9_Node000008_Node000009"><a xlink:title=" ">
<path fill="none" stroke="#63b8ff" d="M705.74,-160.5C725.43,-150.75 751.82,-137.68 769,-129.17"/>
<polygon fill="#63b8ff" stroke="#63b8ff" points="704.1,-157.41 696.69,-164.98 707.21,-163.68 704.1,-157.41"/>
</a>
</g>
</g>
<!-- Node10 -->
<g id="Node000010" class="node">
<title>Node10</title>
<g id="a_Node000010"><a xlink:href="fight_2main_8cpp.html" target="_top" xlink:title="Fight&#45;to&#45;the&#45;end demo (universal mode).">
<polygon fill="white" stroke="#666666" points="459.5,-74 397.5,-74 397.5,-55 459.5,-55 459.5,-74"/>
<text text-anchor="middle" x="428.5" y="-62" font-family="Helvetica,sans-Serif" font-size="10.00">main.cpp</text>
</a>
</g>
</g>
<!-- Node8&#45;&gt;Node10 -->
<g id="edge31_Node000008_Node000010" class="edge">
<title>Node8&#45;&gt;Node10</title>
<g id="a_edge31_Node000008_Node000010"><a xlink:title=" ">
<path fill="none" stroke="#63b8ff" d="M633.9,-172.81C517.48,-170.58 216.36,-161.68 186.5,-129 180.8,-122.77 181.1,-116.49 186.5,-110 213.02,-78.16 338.32,-69.02 397.46,-66.46"/>
<polygon fill="#63b8ff" stroke="#63b8ff" points="633.86,-176.31 643.92,-172.99 633.99,-169.31 633.86,-176.31"/>
</a>
</g>
</g>
<!-- Node8&#45;&gt;Node12 -->
<g id="edge36_Node000008_Node000012" class="edge">
<title>Node8&#45;&gt;Node12</title>
<g id="a_edge36_Node000008_Node000012"><a xlink:title=" ">
<path fill="none" stroke="#63b8ff" d="M725.07,-164.89C792.78,-152.08 912.12,-129.45 912.5,-129 925.59,-113.17 912.99,-87.75 904.62,-74.38"/>
<polygon fill="#63b8ff" stroke="#63b8ff" points="724.24,-161.48 715.07,-166.78 725.55,-168.36 724.24,-161.48"/>
</a>
</g>
</g>
<!-- Node8&#45;&gt;Node22 -->
<g id="edge22_Node000008_Node000022" class="edge">
<title>Node8&#45;&gt;Node22</title>
<g id="a_edge22_Node000008_Node000022"><a xlink:title=" ">
<path fill="none" stroke="#63b8ff" d="M725.25,-165.03C898.13,-141.11 944.09,-147.42 1113.5,-129 1116.69,-128.65 1119.97,-128.28 1123.28,-127.9"/>
<polygon fill="#63b8ff" stroke="#63b8ff" points="724.73,-161.57 715.31,-166.42 725.7,-168.5 724.73,-161.57"/>
</a>
</g>
</g>
<!-- Node25 -->
<g id="Node000025" class="node">
<title>Node25</title>
<g id="a_Node000025"><a xlink:href="game__session_8hpp.html" target="_top" xlink:title="The application&#45;facing facade (&quot;OS kernel&quot;).">
<polygon fill="white" stroke="#666666" points="1105,-129 998,-129 998,-110 1105,-110 1105,-129"/>
<text text-anchor="middle" x="1051.5" y="-117" font-family="Helvetica,sans-Serif" font-size="10.00">game_session.hpp</text>
</a>
</g>
</g>
<!-- Node8&#45;&gt;Node25 -->
<g id="edge25_Node000008_Node000025" class="edge">
<title>Node8&#45;&gt;Node25</title>
<g id="a_edge25_Node000008_Node000025"><a xlink:title=" ">
<path fill="none" stroke="#63b8ff" d="M725.21,-164.96C827.48,-148.51 934.99,-134.68 997.85,-126.94"/>
<polygon fill="#63b8ff" stroke="#63b8ff" points="724.64,-161.51 715.33,-166.56 725.76,-168.42 724.64,-161.51"/>
</a>
</g>
</g>
<!-- Node27 -->
<g id="Node000027" class="node">
<title>Node27</title>
<g id="a_Node000027"><a xlink:href="ecs__entt_2main_8cpp.html" target="_top" xlink:title="EnTT integration example (specific implementation of the ECS pattern).">
<polygon fill="white" stroke="#666666" points="903.5,-129 841.5,-129 841.5,-110 903.5,-110 903.5,-129"/>
<text text-anchor="middle" x="872.5" y="-117" font-family="Helvetica,sans-Serif" font-size="10.00">main.cpp</text>
</a>
</g>
</g>
<!-- Node8&#45;&gt;Node27 -->
<g id="edge30_Node000008_Node000027" class="edge">
<title>Node8&#45;&gt;Node27</title>
<g id="a_edge30_Node000008_Node000027"><a xlink:title=" ">
<path fill="none" stroke="#63b8ff" d="M720.25,-162.31C756.36,-152.39 808.33,-138.12 841.25,-129.08"/>
<polygon fill="#63b8ff" stroke="#63b8ff" points="719.22,-158.96 710.51,-164.98 721.08,-165.71 719.22,-158.96"/>
</a>
</g>
</g>
<!-- Node28 -->
<g id="Node000028" class="node">
<title>Node28</title>
<g id="a_Node000028"><a xlink:href="universal__mode_2main_8cpp.html" target="_top" xlink:title="Universal mode demo: load any ruleset JSON at runtime and resolve rules generically.">
<polygon fill="white" stroke="#666666" points="257.5,-129 195.5,-129 195.5,-110 257.5,-110 257.5,-129"/>
<text text-anchor="middle" x="226.5" y="-117" font-family="Helvetica,sans-Serif" font-size="10.00">main.cpp</text>
</a>
</g>
</g>
<!-- Node8&#45;&gt;Node28 -->
<g id="edge32_Node000008_Node000028" class="edge">
<title>Node8&#45;&gt;Node28</title>
<g id="a_edge32_Node000008_Node000028"><a xlink:title=" ">
<path fill="none" stroke="#63b8ff" d="M633.76,-170.11C557.37,-164.1 399.13,-150.18 266.5,-129 263.7,-128.55 260.79,-128.04 257.89,-127.49"/>
<polygon fill="#63b8ff" stroke="#63b8ff" points="633.74,-173.62 643.98,-170.9 634.28,-166.64 633.74,-173.62"/>
</a>
</g>
</g>
<!-- Node29 -->
<g id="Node000029" class="node">
<title>Node29</title>
<g id="a_Node000029"><a xlink:href="test__data__api_8cpp.html" target="_top" xlink:title="Tests for the engine&#39;s full&#45;coverage data API.">
<polygon fill="white" stroke="#666666" points="379,-129 276,-129 276,-110 379,-110 379,-129"/>
<text text-anchor="middle" x="327.5" y="-117" font-family="Helvetica,sans-Serif" font-size="10.00">test_data_api.cpp</text>
</a>
</g>
</g>
<!-- Node8&#45;&gt;Node29 -->
<g id="edge34_Node000008_Node000029" class="edge">
<title>Node8&#45;&gt;Node29</title>
<g id="a_edge34_Node000008_Node000029"><a xlink:title=" ">
<path fill="none" stroke="#63b8ff" d="M633.78,-166.62C568.21,-156.74 447.85,-138.62 379.15,-128.28"/>
<polygon fill="#63b8ff" stroke="#63b8ff" points="633.4,-170.1 643.81,-168.13 634.44,-163.18 633.4,-170.1"/>
</a>
</g>
</g>
<!-- Node30 -->
<g id="Node000030" class="node">
<title>Node30</title>
<g id="a_Node000030"><a xlink:href="test__engine_8cpp.html" target="_top" xlink:title="Integration tests for the universal engine facade (rpg_os::RulesetEngine).">
<polygon fill="white" stroke="#666666" points="491.5,-129 397.5,-129 397.5,-110 491.5,-110 491.5,-129"/>
<text text-anchor="middle" x="444.5" y="-117" font-family="Helvetica,sans-Serif" font-size="10.00">test_engine.cpp</text>
</a>
</g>
</g>
<!-- Node8&#45;&gt;Node30 -->
<g id="edge35_Node000008_Node000030" class="edge">
<title>Node8&#45;&gt;Node30</title>
<g id="a_edge35_Node000008_Node000030"><a xlink:title=" ">
<path fill="none" stroke="#63b8ff" d="M633.93,-163.22C589.84,-153.28 523.8,-138.38 482.48,-129.07"/>
<polygon fill="#63b8ff" stroke="#63b8ff" points="633.28,-166.66 643.81,-165.45 634.82,-159.84 633.28,-166.66"/>
</a>
</g>
</g>
<!-- Node31 -->
<g id="Node000031" class="node">
<title>Node31</title>
<g id="a_Node000031"><a xlink:href="test__rulesets_8cpp.html" target="_top" xlink:title="Tests that load the real shipped rulesets (the rulesets/ JSON files).">
<polygon fill="white" stroke="#666666" points="609.5,-129 509.5,-129 509.5,-110 609.5,-110 609.5,-129"/>
<text text-anchor="middle" x="559.5" y="-117" font-family="Helvetica,sans-Serif" font-size="10.00">test_rulesets.cpp</text>
</a>
</g>
</g>
<!-- Node8&#45;&gt;Node31 -->
<g id="edge37_Node000008_Node000031" class="edge">
<title>Node8&#45;&gt;Node31</title>
<g id="a_edge37_Node000008_Node000031"><a xlink:title=" ">
<path fill="none" stroke="#63b8ff" d="M650.97,-160.9C628.8,-151.11 598.65,-137.79 579.13,-129.17"/>
<polygon fill="#63b8ff" stroke="#63b8ff" points="649.66,-164.15 660.22,-164.98 652.49,-157.74 649.66,-164.15"/>
</a>
</g>
</g>
<!-- Node32 -->
<g id="Node000032" class="node">
<title>Node32</title>
<g id="a_Node000032"><a xlink:href="test__variance_8cpp.html" target="_top" xlink:title="Tests for variance / range selection (rpg_os::Variance, rpg_os::readVariantValue).">
<polygon fill="white" stroke="#666666" points="731,-129 628,-129 628,-110 731,-110 731,-129"/>
<text text-anchor="middle" x="679.5" y="-117" font-family="Helvetica,sans-Serif" font-size="10.00">test_variance.cpp</text>
</a>
</g>
</g>
<!-- Node8&#45;&gt;Node32 -->
<g id="edge38_Node000008_Node000032" class="edge">
<title>Node8&#45;&gt;Node32</title>
<g id="a_edge38_Node000008_Node000032"><a xlink:title=" ">
<path fill="none" stroke="#63b8ff" d="M679.5,-154.66C679.5,-145.93 679.5,-135.99 679.5,-129.09"/>
<polygon fill="#63b8ff" stroke="#63b8ff" points="676,-154.75 679.5,-164.75 683,-154.75 676,-154.75"/>
</a>
</g>
</g>
<!-- Node9&#45;&gt;Node10 -->
<g id="edge10_Node000009_Node000010" class="edge">
<title>Node9&#45;&gt;Node10</title>
<g id="a_edge10_Node000009_Node000010"><a xlink:title=" ">
<path fill="none" stroke="#63b8ff" d="M739.14,-110C630.18,-92.49 514.38,-76.81 459.9,-69.6"/>
<polygon fill="#63b8ff" stroke="#63b8ff" points="738.89,-113.51 749.32,-111.65 740.01,-106.6 738.89,-113.51"/>
</a>
</g>
</g>
<!-- Node11 -->
<g id="Node000011" class="node">
<title>Node11</title>
<g id="a_Node000011"><a xlink:href="test__combat_8cpp.html" target="_top" xlink:title="Tests for the combat simulation helpers (include/rpg_os/universal/combat.hpp).">
<polygon fill="white" stroke="#666666" points="831.5,-74 733.5,-74 733.5,-55 831.5,-55 831.5,-74"/>
<text text-anchor="middle" x="782.5" y="-62" font-family="Helvetica,sans-Serif" font-size="10.00">test_combat.cpp</text>
</a>
</g>
</g>
<!-- Node9&#45;&gt;Node11 -->
<g id="edge11_Node000009_Node000011" class="edge">
<title>Node9&#45;&gt;Node11</title>
<g id="a_edge11_Node000009_Node000011"><a xlink:title=" ">
<path fill="none" stroke="#63b8ff" d="M785.08,-99.66C784.42,-90.93 783.67,-80.99 783.15,-74.09"/>
<polygon fill="#63b8ff" stroke="#63b8ff" points="781.6,-100.04 785.84,-109.75 788.58,-99.51 781.6,-100.04"/>
</a>
</g>
</g>
<!-- Node9&#45;&gt;Node12 -->
<g id="edge12_Node000009_Node000012" class="edge">
<title>Node9&#45;&gt;Node12</title>
<g id="a_edge12_Node000009_Node000012"><a xlink:title=" ">
<path fill="none" stroke="#63b8ff" d="M813.69,-105.63C834.32,-95.87 862.12,-82.71 880.18,-74.17"/>
<polygon fill="#63b8ff" stroke="#63b8ff" points="812.04,-102.54 804.49,-109.98 815.03,-108.87 812.04,-102.54"/>
</a>
</g>
</g>
<!-- Node13 -->
<g id="Node000013" class="node">
<title>Node13</title>
<g id="a_Node000013"><a xlink:href="test__advancement_8cpp.html" target="_top" xlink:title="Advancement, rests, and curses.">
<polygon fill="white" stroke="#666666" points="441.5,-19 313.5,-19 313.5,0 441.5,0 441.5,-19"/>
<text text-anchor="middle" x="377.5" y="-7" font-family="Helvetica,sans-Serif" font-size="10.00">test_advancement.cpp</text>
</a>
</g>
</g>
<!-- Node12&#45;&gt;Node13 -->
<g id="edge13_Node000012_Node000013" class="edge">
<title>Node12&#45;&gt;Node13</title>
<g id="a_edge13_Node000012_Node000013"><a xlink:title=" ">
<path fill="none" stroke="#63b8ff" d="M839.5,-54.94C665.98,-34.47 620.42,-36.73 450.5,-19 447.58,-18.7 444.6,-18.38 441.58,-18.05"/>
<polygon fill="#63b8ff" stroke="#63b8ff" points="839.13,-58.42 849.48,-56.13 839.96,-51.47 839.13,-58.42"/>
</a>
</g>
</g>
<!-- Node14 -->
<g id="Node000014" class="node">
<title>Node14</title>
<g id="a_Node000014"><a xlink:href="test__conditions_8cpp.html" target="_top" xlink:title="Mechanical conditions: durations, stat/check modifiers, restrictions and capabilities.">
<polygon fill="white" stroke="#666666" points="571,-19 460,-19 460,0 571,0 571,-19"/>
<text text-anchor="middle" x="515.5" y="-7" font-family="Helvetica,sans-Serif" font-size="10.00">test_conditions.cpp</text>
</a>
</g>
</g>
<!-- Node12&#45;&gt;Node14 -->
<g id="edge14_Node000012_Node000014" class="edge">
<title>Node12&#45;&gt;Node14</title>
<g id="a_edge14_Node000012_Node000014"><a xlink:title=" ">
<path fill="none" stroke="#63b8ff" d="M839.43,-54.86C738.86,-40.64 633.65,-26.37 571.02,-17.94"/>
<polygon fill="#63b8ff" stroke="#63b8ff" points="839.06,-58.34 849.46,-56.28 840.05,-51.41 839.06,-58.34"/>
</a>
</g>
</g>
<!-- Node15 -->
<g id="Node000015" class="node">
<title>Node15</title>
<g id="a_Node000015"><a xlink:href="test__effects_8cpp.html" target="_top" xlink:title="The effect timeline: durations, stat bonuses, recurring/ongoing effects, option groups.">
<polygon fill="white" stroke="#666666" points="683.5,-19 589.5,-19 589.5,0 683.5,0 683.5,-19"/>
<text text-anchor="middle" x="636.5" y="-7" font-family="Helvetica,sans-Serif" font-size="10.00">test_effects.cpp</text>
</a>
</g>
</g>
<!-- Node12&#45;&gt;Node15 -->
<g id="edge15_Node000012_Node000015" class="edge">
<title>Node12&#45;&gt;Node15</title>
<g id="a_edge15_Node000012_Node000015"><a xlink:title=" ">
<path fill="none" stroke="#63b8ff" d="M846.3,-52.94C797.19,-43.01 724.57,-28.31 678.92,-19.08"/>
<polygon fill="#63b8ff" stroke="#63b8ff" points="845.91,-56.43 856.41,-54.98 847.3,-49.57 845.91,-56.43"/>
</a>
</g>
</g>
<!-- Node16 -->
<g id="Node000016" class="node">
<title>Node16</title>
<g id="a_Node000016"><a xlink:href="test__equipment_8cpp.html" target="_top" xlink:title="Equipment slots, equipping/unequipping, and gear&#45;modified effective stats.">
<polygon fill="white" stroke="#666666" points="815,-19 702,-19 702,0 815,0 815,-19"/>
<text text-anchor="middle" x="758.5" y="-7" font-family="Helvetica,sans-Serif" font-size="10.00">test_equipment.cpp</text>
</a>
</g>
</g>
<!-- Node12&#45;&gt;Node16 -->
<g id="edge16_Node000012_Node000016" class="edge">
<title>Node12&#45;&gt;Node16</title>
<g id="a_edge16_Node000012_Node000016"><a xlink:title=" ">
<path fill="none" stroke="#63b8ff" d="M866.59,-51.42C840.62,-41.59 804.58,-27.95 781.4,-19.17"/>
<polygon fill="#63b8ff" stroke="#63b8ff" points="865.42,-54.72 876.01,-54.98 867.89,-48.17 865.42,-54.72"/>
</a>
</g>
</g>
<!-- Node17 -->
<g id="Node000017" class="node">
<title>Node17</title>
<g id="a_Node000017"><a xlink:href="test__game__session_8cpp.html" target="_top" xlink:title="The GameSession facade: sheets, world state, events, save/load.">
<polygon fill="white" stroke="#666666" points="964,-19 833,-19 833,0 964,0 964,-19"/>
<text text-anchor="middle" x="898.5" y="-7" font-family="Helvetica,sans-Serif" font-size="10.00">test_game_session.cpp</text>
</a>
</g>
</g>
<!-- Node12&#45;&gt;Node17 -->
<g id="edge17_Node000012_Node000017" class="edge">
<title>Node12&#45;&gt;Node17</title>
<g id="a_edge17_Node000012_Node000017"><a xlink:title=" ">
<path fill="none" stroke="#63b8ff" d="M898.5,-44.66C898.5,-35.93 898.5,-25.99 898.5,-19.09"/>
<polygon fill="#63b8ff" stroke="#63b8ff" points="895,-44.75 898.5,-54.75 902,-44.75 895,-44.75"/>
</a>
</g>
</g>
<!-- Node18 -->
<g id="Node000018" class="node">
<title>Node18</title>
<g id="a_Node000018"><a xlink:href="test__inventory_8cpp.html" target="_top" xlink:title="Inventory stacks, nested containers, and carrying weight.">
<polygon fill="white" stroke="#666666" points="1088.5,-19 982.5,-19 982.5,0 1088.5,0 1088.5,-19"/>
<text text-anchor="middle" x="1035.5" y="-7" font-family="Helvetica,sans-Serif" font-size="10.00">test_inventory.cpp</text>
</a>
</g>
</g>
<!-- Node12&#45;&gt;Node18 -->
<g id="edge18_Node000012_Node000018" class="edge">
<title>Node12&#45;&gt;Node18</title>
<g id="a_edge18_Node000012_Node000018"><a xlink:title=" ">
<path fill="none" stroke="#63b8ff" d="M930.06,-51.29C955.45,-41.47 990.5,-27.91 1013.09,-19.17"/>
<polygon fill="#63b8ff" stroke="#63b8ff" points="928.58,-48.11 920.51,-54.98 931.1,-54.64 928.58,-48.11"/>
</a>
</g>
</g>
<!-- Node19 -->
<g id="Node000019" class="node">
<title>Node19</title>
<g id="a_Node000019"><a xlink:href="test__money_8cpp.html" target="_top" xlink:title="Money, currency conversion, and the economy (prices, buying, paying).">
<polygon fill="white" stroke="#666666" points="1200,-19 1107,-19 1107,0 1200,0 1200,-19"/>
<text text-anchor="middle" x="1153.5" y="-7" font-family="Helvetica,sans-Serif" font-size="10.00">test_money.cpp</text>
</a>
</g>
</g>
<!-- Node12&#45;&gt;Node19 -->
<g id="edge19_Node000012_Node000019" class="edge">
<title>Node12&#45;&gt;Node19</title>
<g id="a_edge19_Node000012_Node000019"><a xlink:title=" ">
<path fill="none" stroke="#63b8ff" d="M949.3,-52.94C997.1,-43.01 1067.79,-28.31 1112.21,-19.08"/>
<polygon fill="#63b8ff" stroke="#63b8ff" points="948.55,-49.52 939.47,-54.98 949.97,-56.38 948.55,-49.52"/>
</a>
</g>
</g>
<!-- Node20 -->
<g id="Node000020" class="node">
<title>Node20</title>
<g id="a_Node000020"><a xlink:href="test__spellcasting_8cpp.html" target="_top" xlink:title="Spellbooks and casting: prepared pools, vancian slots, structured spell effects.">
<polygon fill="white" stroke="#666666" points="1337,-19 1218,-19 1218,0 1337,0 1337,-19"/>
<text text-anchor="middle" x="1277.5" y="-7" font-family="Helvetica,sans-Serif" font-size="10.00">test_spellcasting.cpp</text>
</a>
</g>
</g>
<!-- Node12&#45;&gt;Node20 -->
<g id="edge20_Node000012_Node000020" class="edge">
<title>Node12&#45;&gt;Node20</title>
<g id="a_edge20_Node000012_Node000020"><a xlink:title=" ">
<path fill="none" stroke="#63b8ff" d="M957.52,-54.86C1054.54,-41.05 1155.39,-27.17 1217.73,-18.65"/>
<polygon fill="#63b8ff" stroke="#63b8ff" points="956.95,-51.41 947.54,-56.29 957.94,-58.34 956.95,-51.41"/>
</a>
</g>
</g>
<!-- Node21 -->
<g id="Node000021" class="node">
<title>Node21</title>
<g id="a_Node000021"><a xlink:href="test__traits_8cpp.html" target="_top" xlink:title="Creature traits: stat/check modifiers, effects at creation, regeneration.">
<polygon fill="white" stroke="#666666" points="1441.5,-19 1355.5,-19 1355.5,0 1441.5,0 1441.5,-19"/>
<text text-anchor="middle" x="1398.5" y="-7" font-family="Helvetica,sans-Serif" font-size="10.00">test_traits.cpp</text>
</a>
</g>
</g>
<!-- Node12&#45;&gt;Node21 -->
<g id="edge21_Node000012_Node000021" class="edge">
<title>Node12&#45;&gt;Node21</title>
<g id="a_edge21_Node000012_Node000021"><a xlink:title=" ">
<path fill="none" stroke="#63b8ff" d="M957.5,-54.95C1131.04,-34.61 1177.04,-40.64 1346.5,-19 1349.4,-18.63 1352.39,-18.22 1355.4,-17.78"/>
<polygon fill="#63b8ff" stroke="#63b8ff" points="957.04,-51.48 947.52,-56.13 957.87,-58.43 957.04,-51.48"/>
</a>
</g>
</g>
<!-- Node23 -->
<g id="Node000023" class="node">
<title>Node23</title>
<g id="a_Node000023"><a xlink:href="ecs__registry_2main_8cpp.html" target="_top" xlink:title="Dependency&#45;free ECS pattern example.">
<polygon fill="white" stroke="#666666" points="1335.5,-74 1273.5,-74 1273.5,-55 1335.5,-55 1335.5,-74"/>
<text text-anchor="middle" x="1304.5" y="-62" font-family="Helvetica,sans-Serif" font-size="10.00">main.cpp</text>
</a>
</g>
</g>
<!-- Node22&#45;&gt;Node23 -->
<g id="edge23_Node000022_Node000023" class="edge">
<title>Node22&#45;&gt;Node23</title>
<g id="a_edge23_Node000022_Node000023"><a xlink:title=" ">
<path fill="none" stroke="#63b8ff" d="M1210.75,-105.9C1233.47,-96.11 1264.37,-82.79 1284.38,-74.17"/>
<polygon fill="#63b8ff" stroke="#63b8ff" points="1209.06,-102.81 1201.26,-109.98 1211.83,-109.24 1209.06,-102.81"/>
</a>
</g>
</g>
<!-- Node24 -->
<g id="Node000024" class="node">
<title>Node24</title>
<g id="a_Node000024"><a xlink:href="test__combat__session_8cpp.html" target="_top" xlink:title="Tests for the turn &amp; action&#45;economy orchestrator (rpg_os::CombatSession).">
<polygon fill="white" stroke="#666666" points="1255.5,-74 1115.5,-74 1115.5,-55 1255.5,-55 1255.5,-74"/>
<text text-anchor="middle" x="1185.5" y="-62" font-family="Helvetica,sans-Serif" font-size="10.00">test_combat_session.cpp</text>
</a>
</g>
</g>
<!-- Node22&#45;&gt;Node24 -->
<g id="edge24_Node000022_Node000024" class="edge">
<title>Node22&#45;&gt;Node24</title>
<g id="a_edge24_Node000022_Node000024"><a xlink:title=" ">
<path fill="none" stroke="#63b8ff" d="M1182.92,-99.66C1183.58,-90.93 1184.33,-80.99 1184.85,-74.09"/>
<polygon fill="#63b8ff" stroke="#63b8ff" points="1179.42,-99.51 1182.16,-109.75 1186.4,-100.04 1179.42,-99.51"/>
</a>
</g>
</g>
<!-- Node25&#45;&gt;Node12 -->
<g id="edge29_Node000025_Node000012" class="edge">
<title>Node25&#45;&gt;Node12</title>
<g id="a_edge29_Node000025_Node000012"><a xlink:title=" ">
<path fill="none" stroke="#63b8ff" d="M1017.35,-106.67C988.82,-96.79 948.81,-82.93 923.27,-74.08"/>
<polygon fill="#63b8ff" stroke="#63b8ff" points="1016.32,-110.02 1026.92,-109.98 1018.61,-103.4 1016.32,-110.02"/>
</a>
</g>
</g>
<!-- Node25&#45;&gt;Node23 -->
<g id="edge26_Node000025_Node000023" class="edge">
<title>Node25&#45;&gt;Node23</title>
<g id="a_edge26_Node000025_Node000023"><a xlink:title=" ">
<path fill="none" stroke="#63b8ff" d="M1102.71,-107.85C1145.87,-98.87 1209.23,-85.65 1264.5,-74 1267.42,-73.39 1270.45,-72.74 1273.49,-72.1"/>
<polygon fill="#63b8ff" stroke="#63b8ff" points="1101.82,-104.46 1092.74,-109.93 1103.24,-111.32 1101.82,-104.46"/>
</a>
</g>
</g>
<!-- Node25&#45;&gt;Node24 -->
<g id="edge27_Node000025_Node000024" class="edge">
<title>Node25&#45;&gt;Node24</title>
<g id="a_edge27_Node000025_Node000024"><a xlink:title=" ">
<path fill="none" stroke="#63b8ff" d="M1082.37,-106.29C1107.2,-96.47 1141.49,-82.91 1163.58,-74.17"/>
<polygon fill="#63b8ff" stroke="#63b8ff" points="1081.04,-103.05 1073.03,-109.98 1083.62,-109.56 1081.04,-103.05"/>
</a>
</g>
</g>
<!-- Node26 -->
<g id="Node000026" class="node">
<title>Node26</title>
<g id="a_Node000026"><a xlink:href="test__entity__registry_8cpp.html" target="_top" xlink:title="Tests for entity instance ids, handles, and the registry.">
<polygon fill="white" stroke="#666666" points="1097,-74 966,-74 966,-55 1097,-55 1097,-74"/>
<text text-anchor="middle" x="1031.5" y="-62" font-family="Helvetica,sans-Serif" font-size="10.00">test_entity_registry.cpp</text>
</a>
</g>
</g>
<!-- Node25&#45;&gt;Node26 -->
<g id="edge28_Node000025_Node000026" class="edge">
<title>Node25&#45;&gt;Node26</title>
<g id="a_edge28_Node000025_Node000026"><a xlink:title=" ">
<path fill="none" stroke="#63b8ff" d="M1044.61,-100.24C1041.26,-91.37 1037.4,-81.14 1034.74,-74.09"/>
<polygon fill="#63b8ff" stroke="#63b8ff" points="1041.39,-101.63 1048.2,-109.75 1047.94,-99.16 1041.39,-101.63"/>
</a>
</g>
</g>
<!-- Node34&#45;&gt;Node22 -->
<g id="edge43_Node000034_Node000022" class="edge">
<title>Node34&#45;&gt;Node22</title>
<g id="a_edge43_Node000034_Node000022"><a xlink:title=" ">
<path fill="none" stroke="#63b8ff" d="M1081.77,-161.16C1105.84,-151.35 1138.9,-137.87 1160.23,-129.17"/>
<polygon fill="#63b8ff" stroke="#63b8ff" points="1080.33,-157.97 1072.39,-164.98 1082.97,-164.45 1080.33,-157.97"/>
</a>
</g>
</g>
<!-- Node34&#45;&gt;Node25 -->
<g id="edge44_Node000034_Node000025" class="edge">
<title>Node34&#45;&gt;Node25</title>
<g id="a_edge44_Node000034_Node000025"><a xlink:title=" ">
<path fill="none" stroke="#63b8ff" d="M1051.5,-154.66C1051.5,-145.93 1051.5,-135.99 1051.5,-129.09"/>
<polygon fill="#63b8ff" stroke="#63b8ff" points="1048,-154.75 1051.5,-164.75 1055,-154.75 1048,-154.75"/>
</a>
</g>
</g>
<!-- Node35&#45;&gt;Node3 -->
<g id="edge47_Node000035_Node000003" class="edge">
<title>Node35&#45;&gt;Node3</title>
<g id="a_edge47_Node000035_Node000003"><a xlink:title=" ">
<path fill="none" stroke="#63b8ff" d="M290.22,-265.25C283.98,-251.45 273.89,-232.77 260.5,-220 211.53,-173.29 136.33,-142.89 96.47,-129.09"/>
<polygon fill="#63b8ff" stroke="#63b8ff" points="287.09,-266.84 294.22,-274.67 293.53,-264.1 287.09,-266.84"/>
</a>
</g>
</g>
<!-- Node35&#45;&gt;Node5 -->
<g id="edge46_Node000035_Node000005" class="edge">
<title>Node35&#45;&gt;Node5</title>
<g id="a_edge46_Node000035_Node000005"><a xlink:title=" ">
<path fill="none" stroke="#63b8ff" d="M276.65,-269.15C262.74,-259.57 244.89,-247.29 233.1,-239.17"/>
<polygon fill="#63b8ff" stroke="#63b8ff" points="274.91,-272.2 285.13,-274.98 278.88,-266.43 274.91,-272.2"/>
</a>
</g>
</g>
</g>
</svg>

<g id="navigator" transform="translate(0 0)" fill="#404254">
  <rect fill="#f2f5e9" fill-opacity="0.5" stroke="#606060" stroke-width=".5" x="0" y="0" width="60" height="60"/>
  <use id="zoomplus" xlink:href="#zoomPlus" x="17" y="9" onmousedown="handleZoom(evt,'in')"/>
  <use id="zoomminus" xlink:href="#zoomMin" x="42" y="9" onmousedown="handleZoom(evt,'out')"/>
  <use id="reset" xlink:href="#resetDef" x="30" y="36" onmousedown="handleReset()"/>
   <use id="arrowup" xlink:href="#arrowUp" x="0" y="0" onmousedown="handlePan(0,-1)"/>
  <use id="arrowright" xlink:href="#arrowRight" x="0" y="0" onmousedown="handlePan(1,0)"/>
  <use id="arrowdown" xlink:href="#arrowDown" x="0" y="0" onmousedown="handlePan(0,1)"/>
  <use id="arrowleft" xlink:href="#arrowLeft" x="0" y="0" onmousedown="handlePan(-1,0)"/>
</g>
<svg viewBox="0 0 15 15" width="100%" height="30px" preserveAspectRatio="xMaxYMin meet">
 <g id="arrow_out" transform="scale(0.3 0.3)">
  <a xlink:href="equipment_8hpp__dep__incl_org.svg" target="_base">
   <rect id="button" ry="5" rx="5" y="6" x="6" height="38" width="38"
        fill="#f2f5e9" fill-opacity="0.5" stroke="#606060" stroke-width="1.0"/>
   <path id="arrow"
     d="M 11.500037,31.436501 C 11.940474,20.09759 22.043105,11.32322 32.158766,21.979434 L 37.068811,17.246167 C 37.068811,17.246167 37.088388,32 37.088388,32 L 22.160133,31.978069 C 22.160133,31.978069 26.997745,27.140456 26.997745,27.140456 C 18.528582,18.264221 13.291696,25.230495 11.500037,31.436501 z"
     style="fill:#404040;"/>
  </a>
 </g>
</svg>

<style type='text/css'>
<![CDATA[
[data-mouse-over-selected='false'] { opacity: 0.7; }
[data-mouse-over-selected='true']  { opacity: 1.0; }
]]>
</style>
<script type="application/ecmascript"><![CDATA[
document.addEventListener('DOMContentLoaded', (event) => {
  highlightEdges();
  highlightAdjacentNodes();
});
]]></script>
</svg>
