<?xml version="1.0" encoding="UTF-8" standalone="no"?>
<!DOCTYPE svg PUBLIC "-//W3C//DTD SVG 1.1//EN"
 "http://www.w3.org/Graphics/SVG/1.1/DTD/svg11.dtd">
<!-- Generated by graphviz version 2.43.0 (0)
 -->
<!-- Title: test_util.hpp Pages: 1 -->
<svg width="680pt" height="82pt"
 viewBox="0.00 0.00 680.00 82.00" xmlns="http://www.w3.org/2000/svg" xmlns:xlink="http://www.w3.org/1999/xlink">
<g id="graph0" class="graph" transform="scale(1 1) rotate(0) translate(4 78)">
<title>test_util.hpp</title>
<!-- Node1 -->
<g id="Node000001" class="node">
<title>Node1</title>
<g id="a_Node000001"><a xlink:title="Shared helpers for the rpg_os test suite.">
<polygon fill="#999999" stroke="#666666" points="380,-74 303,-74 303,-55 380,-55 380,-74"/>
<text text-anchor="middle" x="341.5" y="-62" font-family="Helvetica,sans-Serif" font-size="10.00">test_util.hpp</text>
</a>
</g>
</g>
<!-- Node2 -->
<g id="Node000002" class="node">
<title>Node2</title>
<g id="a_Node000002"><a xlink:title=" ">
<polygon fill="#e0e0e0" stroke="#999999" points="53,-19 0,-19 0,0 53,0 53,-19"/>
<text text-anchor="middle" x="26.5" y="-7" font-family="Helvetica,sans-Serif" font-size="10.00">cstddef</text>
</a>
</g>
</g>
<!-- Node1&#45;&gt;Node2 -->
<g id="edge1_Node000001_Node000002" class="edge">
<title>Node1&#45;&gt;Node2</title>
<g id="a_edge1_Node000001_Node000002"><a xlink:title=" ">
<path fill="none" stroke="#63b8ff" d="M302.98,-58.27C250.91,-51 154.96,-36.91 63.2,-19"/>
<polygon fill="#63b8ff" stroke="#63b8ff" points="63.68,-15.53 53.19,-17.03 62.32,-22.4 63.68,-15.53"/>
</a>
</g>
</g>
<!-- Node3 -->
<g id="Node000003" class="node">
<title>Node3</title>
<g id="a_Node000003"><a xlink:title=" ">
<polygon fill="#e0e0e0" stroke="#999999" points="121.5,-19 71.5,-19 71.5,0 121.5,0 121.5,-19"/>
<text text-anchor="middle" x="96.5" y="-7" font-family="Helvetica,sans-Serif" font-size="10.00">cstdint</text>
</a>
</g>
</g>
<!-- Node1&#45;&gt;Node3 -->
<g id="edge2_Node000001_Node000003" class="edge">
<title>Node1&#45;&gt;Node3</title>
<g id="a_edge2_Node000001_Node000003"><a xlink:title=" ">
<path fill="none" stroke="#63b8ff" d="M302.9,-55.81C262.59,-47.67 197.28,-34.22 131.81,-19.24"/>
<polygon fill="#63b8ff" stroke="#63b8ff" points="132.26,-15.75 121.73,-16.92 130.69,-22.57 132.26,-15.75"/>
</a>
</g>
</g>
<!-- Node4 -->
<g id="Node000004" class="node">
<title>Node4</title>
<g id="a_Node000004"><a xlink:title=" ">
<polygon fill="#e0e0e0" stroke="#999999" points="241,-19 140,-19 140,0 241,0 241,-19"/>
<text text-anchor="middle" x="190.5" y="-7" font-family="Helvetica,sans-Serif" font-size="10.00">doctest/doctest.h</text>
</a>
</g>
</g>
<!-- Node1&#45;&gt;Node4 -->
<g id="edge3_Node000001_Node000004" class="edge">
<title>Node1&#45;&gt;Node4</title>
<g id="a_edge3_Node000001_Node000004"><a xlink:title=" ">
<path fill="none" stroke="#63b8ff" d="M317.24,-54.98C292.18,-46.19 252.87,-32.39 224.67,-22.49"/>
<polygon fill="#63b8ff" stroke="#63b8ff" points="225.8,-19.18 215.2,-19.17 223.48,-25.78 225.8,-19.18"/>
</a>
</g>
</g>
<!-- Node5 -->
<g id="Node000005" class="node">
<title>Node5</title>
<g id="a_Node000005"><a xlink:title=" ">
<polygon fill="#e0e0e0" stroke="#999999" points="342,-19 259,-19 259,0 342,0 342,-19"/>
<text text-anchor="middle" x="300.5" y="-7" font-family="Helvetica,sans-Serif" font-size="10.00">initializer_list</text>
</a>
</g>
</g>
<!-- Node1&#45;&gt;Node5 -->
<g id="edge4_Node000001_Node000005" class="edge">
<title>Node1&#45;&gt;Node5</title>
<g id="a_edge4_Node000001_Node000005"><a xlink:title=" ">
<path fill="none" stroke="#63b8ff" d="M334.73,-54.75C328.94,-47.26 320.44,-36.28 313.36,-27.13"/>
<polygon fill="#63b8ff" stroke="#63b8ff" points="316.03,-24.86 307.14,-19.09 310.49,-29.14 316.03,-24.86"/>
</a>
</g>
</g>
<!-- Node6 -->
<g id="Node000006" class="node">
<title>Node6</title>
<g id="a_Node000006"><a xlink:title=" ">
<polygon fill="#e0e0e0" stroke="#999999" points="404.5,-19 360.5,-19 360.5,0 404.5,0 404.5,-19"/>
<text text-anchor="middle" x="382.5" y="-7" font-family="Helvetica,sans-Serif" font-size="10.00">string</text>
</a>
</g>
</g>
<!-- Node1&#45;&gt;Node6 -->
<g id="edge5_Node000001_Node000006" class="edge">
<title>Node1&#45;&gt;Node6</title>
<g id="a_edge5_Node000001_Node000006"><a xlink:title=" ">
<path fill="none" stroke="#63b8ff" d="M348.27,-54.75C354.06,-47.26 362.56,-36.28 369.64,-27.13"/>
<polygon fill="#63b8ff" stroke="#63b8ff" points="372.51,-29.14 375.86,-19.09 366.97,-24.86 372.51,-29.14"/>
</a>
</g>
</g>
<!-- Node7 -->
<g id="Node000007" class="node">
<title>Node7</title>
<g id="a_Node000007"><a xlink:title=" ">
<polygon fill="#e0e0e0" stroke="#999999" points="496,-19 423,-19 423,0 496,0 496,-19"/>
<text text-anchor="middle" x="459.5" y="-7" font-family="Helvetica,sans-Serif" font-size="10.00">string_view</text>
</a>
</g>
</g>
<!-- Node1&#45;&gt;Node7 -->
<g id="edge6_Node000001_Node000007" class="edge">
<title>Node1&#45;&gt;Node7</title>
<g id="a_edge6_Node000001_Node000007"><a xlink:title=" ">
<path fill="none" stroke="#63b8ff" d="M360.46,-54.98C379.53,-46.42 409.16,-33.11 431.05,-23.28"/>
<polygon fill="#63b8ff" stroke="#63b8ff" points="432.51,-26.46 440.2,-19.17 429.64,-20.07 432.51,-26.46"/>
</a>
</g>
</g>
<!-- Node8 -->
<g id="Node000008" class="node">
<title>Node8</title>
<g id="a_Node000008"><a xlink:title=" ">
<polygon fill="#e0e0e0" stroke="#999999" points="607,-19 514,-19 514,0 607,0 607,-19"/>
<text text-anchor="middle" x="560.5" y="-7" font-family="Helvetica,sans-Serif" font-size="10.00">unordered_map</text>
</a>
</g>
</g>
<!-- Node1&#45;&gt;Node8 -->
<g id="edge7_Node000001_Node000008" class="edge">
<title>Node1&#45;&gt;Node8</title>
<g id="a_edge7_Node000001_Node000008"><a xlink:title=" ">
<path fill="none" stroke="#63b8ff" d="M376.69,-54.98C414.33,-45.87 474.16,-31.4 515.27,-21.45"/>
<polygon fill="#63b8ff" stroke="#63b8ff" points="516.14,-24.84 525.04,-19.08 514.5,-18.03 516.14,-24.84"/>
</a>
</g>
</g>
<!-- Node9 -->
<g id="Node000009" class="node">
<title>Node9</title>
<g id="a_Node000009"><a xlink:title=" ">
<polygon fill="#e0e0e0" stroke="#999999" points="672,-19 625,-19 625,0 672,0 672,-19"/>
<text text-anchor="middle" x="648.5" y="-7" font-family="Helvetica,sans-Serif" font-size="10.00">vector</text>
</a>
</g>
</g>
<!-- Node1&#45;&gt;Node9 -->
<g id="edge8_Node000001_Node000009" class="edge">
<title>Node1&#45;&gt;Node9</title>
<g id="a_edge8_Node000001_Node000009"><a xlink:title=" ">
<path fill="none" stroke="#63b8ff" d="M380.44,-58.44C431.99,-51.47 525.91,-37.83 614.82,-19.19"/>
<polygon fill="#63b8ff" stroke="#63b8ff" points="615.74,-22.58 624.8,-17.08 614.29,-15.73 615.74,-22.58"/>
</a>
</g>
</g>
</g>
</svg>
