<?xml version="1.0" encoding="UTF-8" standalone="no"?>
<!DOCTYPE svg PUBLIC "-//W3C//DTD SVG 1.1//EN"
 "http://www.w3.org/Graphics/SVG/1.1/DTD/svg11.dtd">
<!-- Generated by graphviz version 2.43.0 (0)
 -->
<!-- Title: test_util.hpp Pages: 1 -->
<svg width="949pt" height="82pt"
 viewBox="0.00 0.00 949.00 82.00" xmlns="http://www.w3.org/2000/svg" xmlns:xlink="http://www.w3.org/1999/xlink">
<g id="graph0" class="graph" transform="scale(1 1) rotate(0) translate(4 78)">
<title>test_util.hpp</title>
<!-- Node1 -->
<g id="Node000001" class="node">
<title>Node1</title>
<g id="a_Node000001"><a xlink:title="Shared helpers for the rpg_os test suite.">
<polygon fill="#999999" stroke="#666666" points="532,-74 455,-74 455,-55 532,-55 532,-74"/>
<text text-anchor="middle" x="493.5" y="-62" font-family="Helvetica,sans-Serif" font-size="10.00">test_util.hpp</text>
</a>
</g>
</g>
<!-- Node2 -->
<g id="Node000002" class="node">
<title>Node2</title>
<g id="a_Node000002"><a xlink:href="test__checks_8cpp.html" target="_top" xlink:title="Tests for the generic, data&#45;driven check resolver (rpg_os::checks).">
<polygon fill="white" stroke="#666666" points="95,-19 0,-19 0,0 95,0 95,-19"/>
<text text-anchor="middle" x="47.5" y="-7" font-family="Helvetica,sans-Serif" font-size="10.00">test_checks.cpp</text>
</a>
</g>
</g>
<!-- Node1&#45;&gt;Node2 -->
<g id="edge1_Node000001_Node000002" class="edge">
<title>Node1&#45;&gt;Node2</title>
<g id="a_edge1_Node000001_Node000002"><a xlink:title=" ">
<path fill="none" stroke="#63b8ff" d="M444.58,-58.51C370.63,-50.82 226,-35.28 103.5,-19 100.77,-18.64 97.97,-18.25 95.14,-17.85"/>
<polygon fill="#63b8ff" stroke="#63b8ff" points="444.66,-62.03 454.97,-59.58 445.38,-55.07 444.66,-62.03"/>
</a>
</g>
</g>
<!-- Node3 -->
<g id="Node000003" class="node">
<title>Node3</title>
<g id="a_Node000003"><a xlink:href="test__codegen__output_8cpp.html" target="_top" xlink:title="Tests for the generated &quot;specific mode&quot; headers in generated/.">
<polygon fill="white" stroke="#666666" points="252,-19 113,-19 113,0 252,0 252,-19"/>
<text text-anchor="middle" x="182.5" y="-7" font-family="Helvetica,sans-Serif" font-size="10.00">test_codegen_output.cpp</text>
</a>
</g>
</g>
<!-- Node1&#45;&gt;Node3 -->
<g id="edge2_Node000001_Node000003" class="edge">
<title>Node1&#45;&gt;Node3</title>
<g id="a_edge2_Node000001_Node000003"><a xlink:title=" ">
<path fill="none" stroke="#63b8ff" d="M444.75,-55.19C386.91,-45.33 290.98,-28.99 232.57,-19.03"/>
<polygon fill="#63b8ff" stroke="#63b8ff" points="444.29,-58.66 454.74,-56.89 445.47,-51.76 444.29,-58.66"/>
</a>
</g>
</g>
<!-- Node4 -->
<g id="Node000004" class="node">
<title>Node4</title>
<g id="a_Node000004"><a xlink:href="test__combat_8cpp.html" target="_top" xlink:title="Tests for the combat simulation helpers (include/rpg_os/universal/combat.hpp).">
<polygon fill="white" stroke="#666666" points="368.5,-19 270.5,-19 270.5,0 368.5,0 368.5,-19"/>
<text text-anchor="middle" x="319.5" y="-7" font-family="Helvetica,sans-Serif" font-size="10.00">test_combat.cpp</text>
</a>
</g>
</g>
<!-- Node1&#45;&gt;Node4 -->
<g id="edge3_Node000001_Node000004" class="edge">
<title>Node1&#45;&gt;Node4</title>
<g id="a_edge3_Node000001_Node000004"><a xlink:title=" ">
<path fill="none" stroke="#63b8ff" d="M455.93,-52.06C423.41,-42.15 377.1,-28.04 347.68,-19.08"/>
<polygon fill="#63b8ff" stroke="#63b8ff" points="454.96,-55.42 465.54,-54.98 457,-48.72 454.96,-55.42"/>
</a>
</g>
</g>
<!-- Node5 -->
<g id="Node000005" class="node">
<title>Node5</title>
<g id="a_Node000005"><a xlink:href="test__data__api_8cpp.html" target="_top" xlink:title="Tests for the engine&#39;s full&#45;coverage data API.">
<polygon fill="white" stroke="#666666" points="490,-19 387,-19 387,0 490,0 490,-19"/>
<text text-anchor="middle" x="438.5" y="-7" font-family="Helvetica,sans-Serif" font-size="10.00">test_data_api.cpp</text>
</a>
</g>
</g>
<!-- Node1&#45;&gt;Node5 -->
<g id="edge4_Node000001_Node000005" class="edge">
<title>Node1&#45;&gt;Node5</title>
<g id="a_edge4_Node000001_Node000005"><a xlink:title=" ">
<path fill="none" stroke="#63b8ff" d="M477.21,-47.8C467.46,-38.41 455.45,-26.83 447.41,-19.09"/>
<polygon fill="#63b8ff" stroke="#63b8ff" points="474.79,-50.33 484.42,-54.75 479.65,-45.29 474.79,-50.33"/>
</a>
</g>
</g>
<!-- Node6 -->
<g id="Node000006" class="node">
<title>Node6</title>
<g id="a_Node000006"><a xlink:href="test__dice_8cpp.html" target="_top" xlink:title="Tests for the shared dice engine (rpg_os::DiceExpression, rpg_os::DefaultRandom).">
<polygon fill="white" stroke="#666666" points="589,-19 508,-19 508,0 589,0 589,-19"/>
<text text-anchor="middle" x="548.5" y="-7" font-family="Helvetica,sans-Serif" font-size="10.00">test_dice.cpp</text>
</a>
</g>
</g>
<!-- Node1&#45;&gt;Node6 -->
<g id="edge5_Node000001_Node000006" class="edge">
<title>Node1&#45;&gt;Node6</title>
<g id="a_edge5_Node000001_Node000006"><a xlink:title=" ">
<path fill="none" stroke="#63b8ff" d="M509.79,-47.8C519.54,-38.41 531.55,-26.83 539.59,-19.09"/>
<polygon fill="#63b8ff" stroke="#63b8ff" points="507.35,-45.29 502.58,-54.75 512.21,-50.33 507.35,-45.29"/>
</a>
</g>
</g>
<!-- Node7 -->
<g id="Node000007" class="node">
<title>Node7</title>
<g id="a_Node000007"><a xlink:href="test__engine_8cpp.html" target="_top" xlink:title="Integration tests for the universal engine facade (rpg_os::RulesetEngine).">
<polygon fill="white" stroke="#666666" points="701.5,-19 607.5,-19 607.5,0 701.5,0 701.5,-19"/>
<text text-anchor="middle" x="654.5" y="-7" font-family="Helvetica,sans-Serif" font-size="10.00">test_engine.cpp</text>
</a>
</g>
</g>
<!-- Node1&#45;&gt;Node7 -->
<g id="edge6_Node000001_Node000007" class="edge">
<title>Node1&#45;&gt;Node7</title>
<g id="a_edge6_Node000001_Node000007"><a xlink:title=" ">
<path fill="none" stroke="#63b8ff" d="M529.05,-51.8C559.09,-41.91 601.44,-27.97 628.43,-19.08"/>
<polygon fill="#63b8ff" stroke="#63b8ff" points="527.77,-48.53 519.37,-54.98 529.96,-55.18 527.77,-48.53"/>
</a>
</g>
</g>
<!-- Node8 -->
<g id="Node000008" class="node">
<title>Node8</title>
<g id="a_Node000008"><a xlink:href="test__rulesets_8cpp.html" target="_top" xlink:title="Tests that load the real shipped rulesets (the rulesets/ JSON files).">
<polygon fill="white" stroke="#666666" points="819.5,-19 719.5,-19 719.5,0 819.5,0 819.5,-19"/>
<text text-anchor="middle" x="769.5" y="-7" font-family="Helvetica,sans-Serif" font-size="10.00">test_rulesets.cpp</text>
</a>
</g>
</g>
<!-- Node1&#45;&gt;Node8 -->
<g id="edge7_Node000001_Node000008" class="edge">
<title>Node1&#45;&gt;Node8</title>
<g id="a_edge7_Node000001_Node000008"><a xlink:title=" ">
<path fill="none" stroke="#63b8ff" d="M542.11,-54.17C593.87,-44.23 675.09,-28.63 725.16,-19.01"/>
<polygon fill="#63b8ff" stroke="#63b8ff" points="541.33,-50.75 532.17,-56.07 542.65,-57.63 541.33,-50.75"/>
</a>
</g>
</g>
<!-- Node9 -->
<g id="Node000009" class="node">
<title>Node9</title>
<g id="a_Node000009"><a xlink:href="test__variance_8cpp.html" target="_top" xlink:title="Tests for variance / range selection (rpg_os::Variance, rpg_os::readVariantValue).">
<polygon fill="white" stroke="#666666" points="941,-19 838,-19 838,0 941,0 941,-19"/>
<text text-anchor="middle" x="889.5" y="-7" font-family="Helvetica,sans-Serif" font-size="10.00">test_variance.cpp</text>
</a>
</g>
</g>
<!-- Node1&#45;&gt;Node9 -->
<g id="edge8_Node000001_Node000009" class="edge">
<title>Node1&#45;&gt;Node9</title>
<g id="a_edge8_Node000001_Node000009"><a xlink:title=" ">
<path fill="none" stroke="#63b8ff" d="M542.19,-57.13C607.4,-48.58 726.69,-32.86 828.5,-19 831.57,-18.58 834.73,-18.15 837.92,-17.71"/>
<polygon fill="#63b8ff" stroke="#63b8ff" points="541.66,-53.67 532.2,-58.44 542.57,-60.61 541.66,-53.67"/>
</a>
</g>
</g>
</g>
</svg>
