<?xml version="1.0" encoding="UTF-8" standalone="no"?>
<!DOCTYPE svg PUBLIC "-//W3C//DTD SVG 1.1//EN"
 "http://www.w3.org/Graphics/SVG/1.1/DTD/svg11.dtd">
<!-- Generated by graphviz version 2.43.0 (0)
 -->
<!-- Title: test_world_state.cpp Pages: 1 -->
<svg width="681pt" height="203pt"
 viewBox="0.00 0.00 681.00 203.00" xmlns="http://www.w3.org/2000/svg" xmlns:xlink="http://www.w3.org/1999/xlink">
<g id="graph0" class="graph" transform="scale(1 1) rotate(0) translate(4 199)">
<title>test_world_state.cpp</title>
<!-- Node1 -->
<g id="Node000001" class="node">
<title>Node1</title>
<g id="a_Node000001"><a xlink:title="Unit tests for the shared world bookkeeping (rpg_os::WorldState).">
<polygon fill="#999999" stroke="#666666" points="175.5,-195 57.5,-195 57.5,-176 175.5,-176 175.5,-195"/>
<text text-anchor="middle" x="116.5" y="-183" font-family="Helvetica,sans-Serif" font-size="10.00">test_world_state.cpp</text>
</a>
</g>
</g>
<!-- Node2 -->
<g id="Node000002" class="node">
<title>Node2</title>
<g id="a_Node000002"><a xlink:title=" ">
<polygon fill="#e0e0e0" stroke="#999999" points="101,-134.5 0,-134.5 0,-115.5 101,-115.5 101,-134.5"/>
<text text-anchor="middle" x="50.5" y="-122.5" font-family="Helvetica,sans-Serif" font-size="10.00">doctest/doctest.h</text>
</a>
</g>
</g>
<!-- Node1&#45;&gt;Node2 -->
<g id="edge1_Node000001_Node000002" class="edge">
<title>Node1&#45;&gt;Node2</title>
<g id="a_edge1_Node000001_Node000002"><a xlink:title=" ">
<path fill="none" stroke="#63b8ff" d="M106.76,-175.87C96.53,-166.8 80.21,-152.34 67.78,-141.32"/>
<polygon fill="#63b8ff" stroke="#63b8ff" points="70.08,-138.68 60.28,-134.67 65.44,-143.92 70.08,-138.68"/>
</a>
</g>
</g>
<!-- Node3 -->
<g id="Node000003" class="node">
<title>Node3</title>
<g id="a_Node000003"><a xlink:href="world__state_8hpp.html" target="_top" xlink:title="Minimal shared world bookkeeping.">
<polygon fill="white" stroke="#666666" points="246,-140 119,-140 119,-110 246,-110 246,-140"/>
<text text-anchor="start" x="127" y="-128" font-family="Helvetica,sans-Serif" font-size="10.00">rpg_os/universal/world</text>
<text text-anchor="middle" x="182.5" y="-117" font-family="Helvetica,sans-Serif" font-size="10.00">_state.hpp</text>
</a>
</g>
</g>
<!-- Node1&#45;&gt;Node3 -->
<g id="edge2_Node000001_Node000003" class="edge">
<title>Node1&#45;&gt;Node3</title>
<g id="a_edge2_Node000001_Node000003"><a xlink:title=" ">
<path fill="none" stroke="#63b8ff" d="M126.24,-175.87C134.86,-168.22 147.8,-156.76 159.09,-146.75"/>
<polygon fill="#63b8ff" stroke="#63b8ff" points="161.41,-149.37 166.58,-140.11 156.77,-144.13 161.41,-149.37"/>
</a>
</g>
</g>
<!-- Node4 -->
<g id="Node000004" class="node">
<title>Node4</title>
<g id="a_Node000004"><a xlink:title=" ">
<polygon fill="#e0e0e0" stroke="#999999" points="207.5,-19 157.5,-19 157.5,0 207.5,0 207.5,-19"/>
<text text-anchor="middle" x="182.5" y="-7" font-family="Helvetica,sans-Serif" font-size="10.00">cstdint</text>
</a>
</g>
</g>
<!-- Node3&#45;&gt;Node4 -->
<g id="edge3_Node000003_Node000004" class="edge">
<title>Node3&#45;&gt;Node4</title>
<g id="a_edge3_Node000003_Node000004"><a xlink:title=" ">
<path fill="none" stroke="#63b8ff" d="M182.5,-109.63C182.5,-89.21 182.5,-51.81 182.5,-29.24"/>
<polygon fill="#63b8ff" stroke="#63b8ff" points="186,-29.23 182.5,-19.23 179,-29.23 186,-29.23"/>
</a>
</g>
</g>
<!-- Node5 -->
<g id="Node000005" class="node">
<title>Node5</title>
<g id="a_Node000005"><a xlink:href="json_8hpp.html" target="_top" xlink:title="JSON value type used throughout rpg_os.">
<polygon fill="white" stroke="#666666" points="154,-74 15,-74 15,-55 154,-55 154,-74"/>
<text text-anchor="middle" x="84.5" y="-62" font-family="Helvetica,sans-Serif" font-size="10.00">rpg_os/common/json.hpp</text>
</a>
</g>
</g>
<!-- Node3&#45;&gt;Node5 -->
<g id="edge4_Node000003_Node000005" class="edge">
<title>Node3&#45;&gt;Node5</title>
<g id="a_edge4_Node000003_Node000005"><a xlink:title=" ">
<path fill="none" stroke="#63b8ff" d="M158.78,-109.84C143.3,-100.6 123.18,-88.59 107.79,-79.4"/>
<polygon fill="#63b8ff" stroke="#63b8ff" points="109.28,-76.21 98.9,-74.09 105.69,-82.23 109.28,-76.21"/>
</a>
</g>
</g>
<!-- Node7 -->
<g id="Node000007" class="node">
<title>Node7</title>
<g id="a_Node000007"><a xlink:href="money_8hpp.html" target="_top" xlink:title="Generic currency model (denominations + an amount).">
<polygon fill="white" stroke="#666666" points="427,-74 298,-74 298,-55 427,-55 427,-74"/>
<text text-anchor="middle" x="362.5" y="-62" font-family="Helvetica,sans-Serif" font-size="10.00">rpg_os/core/money.hpp</text>
</a>
</g>
</g>
<!-- Node3&#45;&gt;Node7 -->
<g id="edge6_Node000003_Node000007" class="edge">
<title>Node3&#45;&gt;Node7</title>
<g id="a_edge6_Node000003_Node000007"><a xlink:title=" ">
<path fill="none" stroke="#63b8ff" d="M225.61,-109.99C256.41,-99.98 297.37,-86.67 326.43,-77.22"/>
<polygon fill="#63b8ff" stroke="#63b8ff" points="327.75,-80.47 336.18,-74.05 325.59,-73.82 327.75,-80.47"/>
</a>
</g>
</g>
<!-- Node6 -->
<g id="Node000006" class="node">
<title>Node6</title>
<g id="a_Node000006"><a xlink:title=" ">
<polygon fill="#e0e0e0" stroke="#999999" points="139.5,-19 29.5,-19 29.5,0 139.5,0 139.5,-19"/>
<text text-anchor="middle" x="84.5" y="-7" font-family="Helvetica,sans-Serif" font-size="10.00">nlohmann/json.hpp</text>
</a>
</g>
</g>
<!-- Node5&#45;&gt;Node6 -->
<g id="edge5_Node000005_Node000006" class="edge">
<title>Node5&#45;&gt;Node6</title>
<g id="a_edge5_Node000005_Node000006"><a xlink:title=" ">
<path fill="none" stroke="#63b8ff" d="M84.5,-54.75C84.5,-47.8 84.5,-37.85 84.5,-29.13"/>
<polygon fill="#63b8ff" stroke="#63b8ff" points="88,-29.09 84.5,-19.09 81,-29.09 88,-29.09"/>
</a>
</g>
</g>
<!-- Node7&#45;&gt;Node4 -->
<g id="edge7_Node000007_Node000004" class="edge">
<title>Node7&#45;&gt;Node4</title>
<g id="a_edge7_Node000007_Node000004"><a xlink:title=" ">
<path fill="none" stroke="#63b8ff" d="M333.58,-54.98C301.97,-45.68 251.32,-30.76 217.49,-20.8"/>
<polygon fill="#63b8ff" stroke="#63b8ff" points="218.16,-17.35 207.57,-17.88 216.18,-24.07 218.16,-17.35"/>
</a>
</g>
</g>
<!-- Node8 -->
<g id="Node000008" class="node">
<title>Node8</title>
<g id="a_Node000008"><a xlink:title=" ">
<polygon fill="#e0e0e0" stroke="#999999" points="590,-19 507,-19 507,0 590,0 590,-19"/>
<text text-anchor="middle" x="548.5" y="-7" font-family="Helvetica,sans-Serif" font-size="10.00">initializer_list</text>
</a>
</g>
</g>
<!-- Node7&#45;&gt;Node8 -->
<g id="edge8_Node000007_Node000008" class="edge">
<title>Node7&#45;&gt;Node8</title>
<g id="a_edge8_Node000007_Node000008"><a xlink:title=" ">
<path fill="none" stroke="#63b8ff" d="M392.38,-54.98C423.88,-46.01 473.67,-31.82 508.53,-21.89"/>
<polygon fill="#63b8ff" stroke="#63b8ff" points="509.72,-25.19 518.38,-19.08 507.81,-18.46 509.72,-25.19"/>
</a>
</g>
</g>
<!-- Node9 -->
<g id="Node000009" class="node">
<title>Node9</title>
<g id="a_Node000009"><a xlink:title=" ">
<polygon fill="#e0e0e0" stroke="#999999" points="673,-19 608,-19 608,0 673,0 673,-19"/>
<text text-anchor="middle" x="640.5" y="-7" font-family="Helvetica,sans-Serif" font-size="10.00">stdexcept</text>
</a>
</g>
</g>
<!-- Node7&#45;&gt;Node9 -->
<g id="edge9_Node000007_Node000009" class="edge">
<title>Node7&#45;&gt;Node9</title>
<g id="a_edge9_Node000007_Node000009"><a xlink:title=" ">
<path fill="none" stroke="#63b8ff" d="M409.32,-54.98C455.01,-46.6 526.77,-33.28 597.82,-19.31"/>
<polygon fill="#63b8ff" stroke="#63b8ff" points="598.7,-22.7 607.84,-17.33 597.35,-15.83 598.7,-22.7"/>
</a>
</g>
</g>
<!-- Node10 -->
<g id="Node000010" class="node">
<title>Node10</title>
<g id="a_Node000010"><a xlink:title=" ">
<polygon fill="#e0e0e0" stroke="#999999" points="269.5,-19 225.5,-19 225.5,0 269.5,0 269.5,-19"/>
<text text-anchor="middle" x="247.5" y="-7" font-family="Helvetica,sans-Serif" font-size="10.00">string</text>
</a>
</g>
</g>
<!-- Node7&#45;&gt;Node10 -->
<g id="edge10_Node000007_Node000010" class="edge">
<title>Node7&#45;&gt;Node10</title>
<g id="a_edge10_Node000007_Node000010"><a xlink:title=" ">
<path fill="none" stroke="#63b8ff" d="M344.02,-54.98C325.52,-46.46 296.82,-33.23 275.52,-23.41"/>
<polygon fill="#63b8ff" stroke="#63b8ff" points="276.86,-20.18 266.31,-19.17 273.93,-26.53 276.86,-20.18"/>
</a>
</g>
</g>
<!-- Node11 -->
<g id="Node000011" class="node">
<title>Node11</title>
<g id="a_Node000011"><a xlink:title=" ">
<polygon fill="#e0e0e0" stroke="#999999" points="361,-19 288,-19 288,0 361,0 361,-19"/>
<text text-anchor="middle" x="324.5" y="-7" font-family="Helvetica,sans-Serif" font-size="10.00">string_view</text>
</a>
</g>
</g>
<!-- Node7&#45;&gt;Node11 -->
<g id="edge11_Node000007_Node000011" class="edge">
<title>Node7&#45;&gt;Node11</title>
<g id="a_edge11_Node000007_Node000011"><a xlink:title=" ">
<path fill="none" stroke="#63b8ff" d="M356.23,-54.75C350.91,-47.34 343.14,-36.5 336.62,-27.41"/>
<polygon fill="#63b8ff" stroke="#63b8ff" points="339.33,-25.18 330.66,-19.09 333.64,-29.26 339.33,-25.18"/>
</a>
</g>
</g>
<!-- Node12 -->
<g id="Node000012" class="node">
<title>Node12</title>
<g id="a_Node000012"><a xlink:title=" ">
<polygon fill="#e0e0e0" stroke="#999999" points="424,-19 379,-19 379,0 424,0 424,-19"/>
<text text-anchor="middle" x="401.5" y="-7" font-family="Helvetica,sans-Serif" font-size="10.00">utility</text>
</a>
</g>
</g>
<!-- Node7&#45;&gt;Node12 -->
<g id="edge12_Node000007_Node000012" class="edge">
<title>Node7&#45;&gt;Node12</title>
<g id="a_edge12_Node000007_Node000012"><a xlink:title=" ">
<path fill="none" stroke="#63b8ff" d="M368.94,-54.75C374.39,-47.34 382.36,-36.5 389.06,-27.41"/>
<polygon fill="#63b8ff" stroke="#63b8ff" points="392.07,-29.22 395.18,-19.09 386.43,-25.07 392.07,-29.22"/>
</a>
</g>
</g>
<!-- Node13 -->
<g id="Node000013" class="node">
<title>Node13</title>
<g id="a_Node000013"><a xlink:title=" ">
<polygon fill="#e0e0e0" stroke="#999999" points="489,-19 442,-19 442,0 489,0 489,-19"/>
<text text-anchor="middle" x="465.5" y="-7" font-family="Helvetica,sans-Serif" font-size="10.00">vector</text>
</a>
</g>
</g>
<!-- Node7&#45;&gt;Node13 -->
<g id="edge13_Node000007_Node000013" class="edge">
<title>Node7&#45;&gt;Node13</title>
<g id="a_edge13_Node000007_Node000013"><a xlink:title=" ">
<path fill="none" stroke="#63b8ff" d="M379.05,-54.98C395.39,-46.57 420.63,-33.59 439.63,-23.81"/>
<polygon fill="#63b8ff" stroke="#63b8ff" points="441.36,-26.86 448.65,-19.17 438.16,-20.63 441.36,-26.86"/>
</a>
</g>
</g>
</g>
</svg>
