<?xml version="1.0" encoding="UTF-8" standalone="no"?>
<!DOCTYPE svg PUBLIC "-//W3C//DTD SVG 1.1//EN"
 "http://www.w3.org/Graphics/SVG/1.1/DTD/svg11.dtd">
<!-- Generated by graphviz version 2.43.0 (0)
 -->
<!-- Title: test_errors.cpp Pages: 1 -->
<svg width="422pt" height="82pt"
 viewBox="0.00 0.00 422.00 82.00" xmlns="http://www.w3.org/2000/svg" xmlns:xlink="http://www.w3.org/1999/xlink">
<g id="graph0" class="graph" transform="scale(1 1) rotate(0) translate(4 78)">
<title>test_errors.cpp</title>
<!-- Node1 -->
<g id="Node000001" class="node">
<title>Node1</title>
<g id="a_Node000001"><a xlink:title="Unit tests for the bookkeeping error codes (rpg_os::core/errors.hpp).">
<polygon fill="#999999" stroke="#666666" points="288,-74 199,-74 199,-55 288,-55 288,-74"/>
<text text-anchor="middle" x="243.5" y="-62" font-family="Helvetica,sans-Serif" font-size="10.00">test_errors.cpp</text>
</a>
</g>
</g>
<!-- Node2 -->
<g id="Node000002" class="node">
<title>Node2</title>
<g id="a_Node000002"><a xlink:title=" ">
<polygon fill="#e0e0e0" stroke="#999999" points="101,-19 0,-19 0,0 101,0 101,-19"/>
<text text-anchor="middle" x="50.5" y="-7" font-family="Helvetica,sans-Serif" font-size="10.00">doctest/doctest.h</text>
</a>
</g>
</g>
<!-- Node1&#45;&gt;Node2 -->
<g id="edge1_Node000001_Node000002" class="edge">
<title>Node1&#45;&gt;Node2</title>
<g id="a_edge1_Node000001_Node000002"><a xlink:title=" ">
<path fill="none" stroke="#63b8ff" d="M212.49,-54.98C179.67,-45.97 127.7,-31.7 91.51,-21.76"/>
<polygon fill="#63b8ff" stroke="#63b8ff" points="92.32,-18.36 81.75,-19.08 90.47,-25.11 92.32,-18.36"/>
</a>
</g>
</g>
<!-- Node3 -->
<g id="Node000003" class="node">
<title>Node3</title>
<g id="a_Node000003"><a xlink:href="errors_8hpp.html" target="_top" xlink:title="Bookkeeping error codes.">
<polygon fill="white" stroke="#666666" points="244,-19 119,-19 119,0 244,0 244,-19"/>
<text text-anchor="middle" x="181.5" y="-7" font-family="Helvetica,sans-Serif" font-size="10.00">rpg_os/core/errors.hpp</text>
</a>
</g>
</g>
<!-- Node1&#45;&gt;Node3 -->
<g id="edge2_Node000001_Node000003" class="edge">
<title>Node1&#45;&gt;Node3</title>
<g id="a_edge2_Node000001_Node000003"><a xlink:title=" ">
<path fill="none" stroke="#63b8ff" d="M233.54,-54.98C224.37,-47.15 210.56,-35.34 199.47,-25.86"/>
<polygon fill="#63b8ff" stroke="#63b8ff" points="201.52,-23.01 191.64,-19.17 196.97,-28.33 201.52,-23.01"/>
</a>
</g>
</g>
<!-- Node4 -->
<g id="Node000004" class="node">
<title>Node4</title>
<g id="a_Node000004"><a xlink:title=" ">
<polygon fill="#e0e0e0" stroke="#999999" points="348.5,-19 262.5,-19 262.5,0 348.5,0 348.5,-19"/>
<text text-anchor="middle" x="305.5" y="-7" font-family="Helvetica,sans-Serif" font-size="10.00">unordered_set</text>
</a>
</g>
</g>
<!-- Node1&#45;&gt;Node4 -->
<g id="edge3_Node000001_Node000004" class="edge">
<title>Node1&#45;&gt;Node4</title>
<g id="a_edge3_Node000001_Node000004"><a xlink:title=" ">
<path fill="none" stroke="#63b8ff" d="M253.46,-54.98C262.63,-47.15 276.44,-35.34 287.53,-25.86"/>
<polygon fill="#63b8ff" stroke="#63b8ff" points="290.03,-28.33 295.36,-19.17 285.48,-23.01 290.03,-28.33"/>
</a>
</g>
</g>
<!-- Node5 -->
<g id="Node000005" class="node">
<title>Node5</title>
<g id="a_Node000005"><a xlink:title=" ">
<polygon fill="#e0e0e0" stroke="#999999" points="414,-19 367,-19 367,0 414,0 414,-19"/>
<text text-anchor="middle" x="390.5" y="-7" font-family="Helvetica,sans-Serif" font-size="10.00">vector</text>
</a>
</g>
</g>
<!-- Node1&#45;&gt;Node5 -->
<g id="edge4_Node000001_Node000005" class="edge">
<title>Node1&#45;&gt;Node5</title>
<g id="a_edge4_Node000001_Node000005"><a xlink:title=" ">
<path fill="none" stroke="#63b8ff" d="M267.12,-54.98C291.55,-46.18 329.9,-32.35 357.36,-22.45"/>
<polygon fill="#63b8ff" stroke="#63b8ff" points="358.72,-25.68 366.94,-18.99 356.35,-19.09 358.72,-25.68"/>
</a>
</g>
</g>
</g>
</svg>
