<?xml version="1.0" encoding="UTF-8" standalone="no"?>
<!DOCTYPE svg PUBLIC "-//W3C//DTD SVG 1.1//EN"
 "http://www.w3.org/Graphics/SVG/1.1/DTD/svg11.dtd">
<!-- Generated by graphviz version 2.43.0 (0)
 -->
<!-- Title: variance.hpp Pages: 1 -->
<svg width="792pt" height="192pt"
 viewBox="0.00 0.00 792.00 192.00" xmlns="http://www.w3.org/2000/svg" xmlns:xlink="http://www.w3.org/1999/xlink">
<g id="graph0" class="graph" transform="scale(1 1) rotate(0) translate(4 188)">
<title>variance.hpp</title>
<!-- Node1 -->
<g id="Node000001" class="node">
<title>Node1</title>
<g id="a_Node000001"><a xlink:title="Variance / range selection for stat values.">
<polygon fill="#999999" stroke="#666666" points="418,-184 338,-184 338,-165 418,-165 418,-184"/>
<text text-anchor="middle" x="378" y="-172" font-family="Helvetica,sans-Serif" font-size="10.00">variance.hpp</text>
</a>
</g>
</g>
<!-- Node2 -->
<g id="Node000002" class="node">
<title>Node2</title>
<g id="a_Node000002"><a xlink:title=" ">
<polygon fill="#e0e0e0" stroke="#999999" points="50,-19 0,-19 0,0 50,0 50,-19"/>
<text text-anchor="middle" x="25" y="-7" font-family="Helvetica,sans-Serif" font-size="10.00">cstdint</text>
</a>
</g>
</g>
<!-- Node1&#45;&gt;Node2 -->
<g id="edge1_Node000001_Node000002" class="edge">
<title>Node1&#45;&gt;Node2</title>
<g id="a_edge1_Node000001_Node000002"><a xlink:title=" ">
<path fill="none" stroke="#63b8ff" d="M337.91,-167.99C254.51,-155.64 66.81,-122.94 28,-74 18.15,-61.58 18.41,-43.11 20.53,-29.29"/>
<polygon fill="#63b8ff" stroke="#63b8ff" points="23.98,-29.89 22.48,-19.41 17.11,-28.54 23.98,-29.89"/>
</a>
</g>
</g>
<!-- Node3 -->
<g id="Node000003" class="node">
<title>Node3</title>
<g id="a_Node000003"><a xlink:href="json_8hpp.html" target="_top" xlink:title="JSON value type used throughout rpg_os.">
<polygon fill="white" stroke="#666666" points="761.5,-129 622.5,-129 622.5,-110 761.5,-110 761.5,-129"/>
<text text-anchor="middle" x="692" y="-117" font-family="Helvetica,sans-Serif" font-size="10.00">rpg_os/common/json.hpp</text>
</a>
</g>
</g>
<!-- Node1&#45;&gt;Node3 -->
<g id="edge2_Node000001_Node000003" class="edge">
<title>Node1&#45;&gt;Node3</title>
<g id="a_edge2_Node000001_Node000003"><a xlink:title=" ">
<path fill="none" stroke="#63b8ff" d="M418.09,-166.73C472.04,-157.63 568.49,-141.35 631.35,-130.74"/>
<polygon fill="#63b8ff" stroke="#63b8ff" points="632.24,-134.14 641.52,-129.02 631.08,-127.23 632.24,-134.14"/>
</a>
</g>
</g>
<!-- Node5 -->
<g id="Node000005" class="node">
<title>Node5</title>
<g id="a_Node000005"><a xlink:href="concepts_8hpp.html" target="_top" xlink:title="Core concepts that both modes (universal + specific) satisfy.">
<polygon fill="white" stroke="#666666" points="193,-74 53,-74 53,-55 193,-55 193,-74"/>
<text text-anchor="middle" x="123" y="-62" font-family="Helvetica,sans-Serif" font-size="10.00">rpg_os/core/concepts.hpp</text>
</a>
</g>
</g>
<!-- Node1&#45;&gt;Node5 -->
<g id="edge4_Node000001_Node000005" class="edge">
<title>Node1&#45;&gt;Node5</title>
<g id="a_edge4_Node000001_Node000005"><a xlink:title=" ">
<path fill="none" stroke="#63b8ff" d="M357.56,-164.84C312.6,-145.8 204.93,-100.2 152.58,-78.03"/>
<polygon fill="#63b8ff" stroke="#63b8ff" points="153.75,-74.72 143.18,-74.05 151.02,-81.17 153.75,-74.72"/>
</a>
</g>
</g>
<!-- Node8 -->
<g id="Node000008" class="node">
<title>Node8</title>
<g id="a_Node000008"><a xlink:href="dice__engine_8hpp.html" target="_top" xlink:title="Dice expression parsing and rolling.">
<polygon fill="white" stroke="#666666" points="455.5,-129 300.5,-129 300.5,-110 455.5,-110 455.5,-129"/>
<text text-anchor="middle" x="378" y="-117" font-family="Helvetica,sans-Serif" font-size="10.00">rpg_os/core/dice_engine.hpp</text>
</a>
</g>
</g>
<!-- Node1&#45;&gt;Node8 -->
<g id="edge8_Node000001_Node000008" class="edge">
<title>Node1&#45;&gt;Node8</title>
<g id="a_edge8_Node000001_Node000008"><a xlink:title=" ">
<path fill="none" stroke="#63b8ff" d="M378,-164.75C378,-157.8 378,-147.85 378,-139.13"/>
<polygon fill="#63b8ff" stroke="#63b8ff" points="381.5,-139.09 378,-129.09 374.5,-139.09 381.5,-139.09"/>
</a>
</g>
</g>
<!-- Node13 -->
<g id="Node000013" class="node">
<title>Node13</title>
<g id="a_Node000013"><a xlink:title=" ">
<polygon fill="#e0e0e0" stroke="#999999" points="655.5,-74 610.5,-74 610.5,-55 655.5,-55 655.5,-74"/>
<text text-anchor="middle" x="633" y="-62" font-family="Helvetica,sans-Serif" font-size="10.00">utility</text>
</a>
</g>
</g>
<!-- Node1&#45;&gt;Node13 -->
<g id="edge18_Node000001_Node000013" class="edge">
<title>Node1&#45;&gt;Node13</title>
<g id="a_edge18_Node000001_Node000013"><a xlink:title=" ">
<path fill="none" stroke="#63b8ff" d="M398.44,-164.84C443.4,-145.8 551.07,-100.2 603.42,-78.03"/>
<polygon fill="#63b8ff" stroke="#63b8ff" points="604.98,-81.17 612.82,-74.05 602.25,-74.72 604.98,-81.17"/>
</a>
</g>
</g>
<!-- Node4 -->
<g id="Node000004" class="node">
<title>Node4</title>
<g id="a_Node000004"><a xlink:title=" ">
<polygon fill="#e0e0e0" stroke="#999999" points="784,-74 674,-74 674,-55 784,-55 784,-74"/>
<text text-anchor="middle" x="729" y="-62" font-family="Helvetica,sans-Serif" font-size="10.00">nlohmann/json.hpp</text>
</a>
</g>
</g>
<!-- Node3&#45;&gt;Node4 -->
<g id="edge3_Node000003_Node000004" class="edge">
<title>Node3&#45;&gt;Node4</title>
<g id="a_edge3_Node000003_Node000004"><a xlink:title=" ">
<path fill="none" stroke="#63b8ff" d="M698.11,-109.75C703.28,-102.34 710.85,-91.5 717.19,-82.41"/>
<polygon fill="#63b8ff" stroke="#63b8ff" points="720.15,-84.29 723,-74.09 714.41,-80.29 720.15,-84.29"/>
</a>
</g>
</g>
<!-- Node5&#45;&gt;Node2 -->
<g id="edge6_Node000005_Node000002" class="edge">
<title>Node5&#45;&gt;Node2</title>
<g id="a_edge6_Node000005_Node000002"><a xlink:title=" ">
<path fill="none" stroke="#63b8ff" d="M107.25,-54.98C91.77,-46.61 67.91,-33.7 49.86,-23.95"/>
<polygon fill="#63b8ff" stroke="#63b8ff" points="51.49,-20.85 41.03,-19.17 48.16,-27.01 51.49,-20.85"/>
</a>
</g>
</g>
<!-- Node6 -->
<g id="Node000006" class="node">
<title>Node6</title>
<g id="a_Node000006"><a xlink:title=" ">
<polygon fill="#e0e0e0" stroke="#999999" points="153,-19 93,-19 93,0 153,0 153,-19"/>
<text text-anchor="middle" x="123" y="-7" font-family="Helvetica,sans-Serif" font-size="10.00">concepts</text>
</a>
</g>
</g>
<!-- Node5&#45;&gt;Node6 -->
<g id="edge5_Node000005_Node000006" class="edge">
<title>Node5&#45;&gt;Node6</title>
<g id="a_edge5_Node000005_Node000006"><a xlink:title=" ">
<path fill="none" stroke="#63b8ff" d="M123,-54.75C123,-47.8 123,-37.85 123,-29.13"/>
<polygon fill="#63b8ff" stroke="#63b8ff" points="126.5,-29.09 123,-19.09 119.5,-29.09 126.5,-29.09"/>
</a>
</g>
</g>
<!-- Node7 -->
<g id="Node000007" class="node">
<title>Node7</title>
<g id="a_Node000007"><a xlink:title=" ">
<polygon fill="#e0e0e0" stroke="#999999" points="431.5,-19 358.5,-19 358.5,0 431.5,0 431.5,-19"/>
<text text-anchor="middle" x="395" y="-7" font-family="Helvetica,sans-Serif" font-size="10.00">string_view</text>
</a>
</g>
</g>
<!-- Node5&#45;&gt;Node7 -->
<g id="edge7_Node000005_Node000007" class="edge">
<title>Node5&#45;&gt;Node7</title>
<g id="a_edge7_Node000005_Node000007"><a xlink:title=" ">
<path fill="none" stroke="#63b8ff" d="M166.7,-54.98C216.44,-45.29 297.35,-29.53 348.3,-19.6"/>
<polygon fill="#63b8ff" stroke="#63b8ff" points="349.24,-22.98 358.38,-17.63 347.9,-16.11 349.24,-22.98"/>
</a>
</g>
</g>
<!-- Node8&#45;&gt;Node2 -->
<g id="edge11_Node000008_Node000002" class="edge">
<title>Node8&#45;&gt;Node2</title>
<g id="a_edge11_Node000008_Node000002"><a xlink:title=" ">
<path fill="none" stroke="#63b8ff" d="M300.37,-117.66C213.94,-115.12 81.44,-105.94 44,-74 31.15,-63.04 26.79,-43.78 25.41,-29.33"/>
<polygon fill="#63b8ff" stroke="#63b8ff" points="28.88,-28.82 24.83,-19.03 21.9,-29.21 28.88,-28.82"/>
</a>
</g>
</g>
<!-- Node8&#45;&gt;Node5 -->
<g id="edge13_Node000008_Node000005" class="edge">
<title>Node8&#45;&gt;Node5</title>
<g id="a_edge13_Node000008_Node000005"><a xlink:title=" ">
<path fill="none" stroke="#63b8ff" d="M337.03,-109.98C292.74,-100.78 222.06,-86.09 174.15,-76.13"/>
<polygon fill="#63b8ff" stroke="#63b8ff" points="174.79,-72.69 164.29,-74.08 173.37,-79.54 174.79,-72.69"/>
</a>
</g>
</g>
<!-- Node8&#45;&gt;Node7 -->
<g id="edge15_Node000008_Node000007" class="edge">
<title>Node8&#45;&gt;Node7</title>
<g id="a_edge15_Node000008_Node000007"><a xlink:title=" ">
<path fill="none" stroke="#63b8ff" d="M452.67,-109.96C497.75,-103.1 549.1,-91.64 563,-74 597.3,-30.48 503.01,-16.78 442.14,-12.47"/>
<polygon fill="#63b8ff" stroke="#63b8ff" points="442.15,-8.97 431.94,-11.81 441.7,-15.95 442.15,-8.97"/>
</a>
</g>
</g>
<!-- Node9 -->
<g id="Node000009" class="node">
<title>Node9</title>
<g id="a_Node000009"><a xlink:title=" ">
<polygon fill="#e0e0e0" stroke="#999999" points="261,-74 211,-74 211,-55 261,-55 261,-74"/>
<text text-anchor="middle" x="236" y="-62" font-family="Helvetica,sans-Serif" font-size="10.00">chrono</text>
</a>
</g>
</g>
<!-- Node8&#45;&gt;Node9 -->
<g id="edge9_Node000008_Node000009" class="edge">
<title>Node8&#45;&gt;Node9</title>
<g id="a_edge9_Node000008_Node000009"><a xlink:title=" ">
<path fill="none" stroke="#63b8ff" d="M355.19,-109.98C331.83,-101.27 295.3,-87.63 268.83,-77.75"/>
<polygon fill="#63b8ff" stroke="#63b8ff" points="269.82,-74.39 259.23,-74.17 267.37,-80.95 269.82,-74.39"/>
</a>
</g>
</g>
<!-- Node10 -->
<g id="Node000010" class="node">
<title>Node10</title>
<g id="a_Node000010"><a xlink:title=" ">
<polygon fill="#e0e0e0" stroke="#999999" points="332.5,-74 279.5,-74 279.5,-55 332.5,-55 332.5,-74"/>
<text text-anchor="middle" x="306" y="-62" font-family="Helvetica,sans-Serif" font-size="10.00">cstddef</text>
</a>
</g>
</g>
<!-- Node8&#45;&gt;Node10 -->
<g id="edge10_Node000008_Node000010" class="edge">
<title>Node8&#45;&gt;Node10</title>
<g id="a_edge10_Node000008_Node000010"><a xlink:title=" ">
<path fill="none" stroke="#63b8ff" d="M366.43,-109.98C355.58,-102 339.12,-89.88 326.12,-80.31"/>
<polygon fill="#63b8ff" stroke="#63b8ff" points="327.91,-77.28 317.78,-74.17 323.76,-82.92 327.91,-77.28"/>
</a>
</g>
</g>
<!-- Node11 -->
<g id="Node000011" class="node">
<title>Node11</title>
<g id="a_Node000011"><a xlink:title=" ">
<polygon fill="#e0e0e0" stroke="#999999" points="405,-74 351,-74 351,-55 405,-55 405,-74"/>
<text text-anchor="middle" x="378" y="-62" font-family="Helvetica,sans-Serif" font-size="10.00">random</text>
</a>
</g>
</g>
<!-- Node8&#45;&gt;Node11 -->
<g id="edge12_Node000008_Node000011" class="edge">
<title>Node8&#45;&gt;Node11</title>
<g id="a_edge12_Node000008_Node000011"><a xlink:title=" ">
<path fill="none" stroke="#63b8ff" d="M378,-109.75C378,-102.8 378,-92.85 378,-84.13"/>
<polygon fill="#63b8ff" stroke="#63b8ff" points="381.5,-84.09 378,-74.09 374.5,-84.09 381.5,-84.09"/>
</a>
</g>
</g>
<!-- Node12 -->
<g id="Node000012" class="node">
<title>Node12</title>
<g id="a_Node000012"><a xlink:title=" ">
<polygon fill="#e0e0e0" stroke="#999999" points="488.5,-74 423.5,-74 423.5,-55 488.5,-55 488.5,-74"/>
<text text-anchor="middle" x="456" y="-62" font-family="Helvetica,sans-Serif" font-size="10.00">stdexcept</text>
</a>
</g>
</g>
<!-- Node8&#45;&gt;Node12 -->
<g id="edge14_Node000008_Node000012" class="edge">
<title>Node8&#45;&gt;Node12</title>
<g id="a_edge14_Node000008_Node000012"><a xlink:title=" ">
<path fill="none" stroke="#63b8ff" d="M390.53,-109.98C402.4,-101.92 420.46,-89.65 434.61,-80.03"/>
<polygon fill="#63b8ff" stroke="#63b8ff" points="436.94,-82.69 443.24,-74.17 433,-76.9 436.94,-82.69"/>
</a>
</g>
</g>
<!-- Node8&#45;&gt;Node13 -->
<g id="edge16_Node000008_Node000013" class="edge">
<title>Node8&#45;&gt;Node13</title>
<g id="a_edge16_Node000008_Node000013"><a xlink:title=" ">
<path fill="none" stroke="#63b8ff" d="M421.5,-109.95C465.54,-101.21 535.6,-87.1 596,-74 597.45,-73.69 598.93,-73.36 600.42,-73.03"/>
<polygon fill="#63b8ff" stroke="#63b8ff" points="601.33,-76.41 610.32,-70.8 599.8,-69.58 601.33,-76.41"/>
</a>
</g>
</g>
<!-- Node14 -->
<g id="Node000014" class="node">
<title>Node14</title>
<g id="a_Node000014"><a xlink:title=" ">
<polygon fill="#e0e0e0" stroke="#999999" points="553.5,-74 506.5,-74 506.5,-55 553.5,-55 553.5,-74"/>
<text text-anchor="middle" x="530" y="-62" font-family="Helvetica,sans-Serif" font-size="10.00">vector</text>
</a>
</g>
</g>
<!-- Node8&#45;&gt;Node14 -->
<g id="edge17_Node000008_Node000014" class="edge">
<title>Node8&#45;&gt;Node14</title>
<g id="a_edge17_Node000008_Node000014"><a xlink:title=" ">
<path fill="none" stroke="#63b8ff" d="M402.42,-109.98C427.94,-101.09 468.16,-87.06 496.61,-77.14"/>
<polygon fill="#63b8ff" stroke="#63b8ff" points="497.85,-80.42 506.14,-73.82 495.55,-73.81 497.85,-80.42"/>
</a>
</g>
</g>
</g>
</svg>
